<svg width="24" height="24" viewBox="0 0 24 24" fill="none" xmlns="http://www.w3.org/2000/svg">
<path d="M17 15.5C17 16.3284 16.3284 17 15.5 17C14.6716 17 14 16.3284 14 15.5C14 14.6715 14.6716 14 15.5 14C16.3284 14 17 14.6715 17 15.5Z" fill="#2688EB"/>
<path fill-rule="evenodd" clip-rule="evenodd" d="M8 1.5C8.49706 1.5 8.9 1.90294 8.9 2.4V3.00043C9.07974 3 9.26684 3 9.46162 3H14.5384C14.7332 3 14.9203 3 15.1 3.00043V2.4C15.1 1.90294 15.5029 1.5 16 1.5C16.4971 1.5 16.9 1.90294 16.9 2.4V3.05299C17.5278 3.10616 18.0828 3.21729 18.5976 3.47957C19.4255 3.90141 20.0986 4.57453 20.5205 5.40244C20.7866 5.92481 20.8971 6.48863 20.9494 7.12792C21 7.74834 21 8.51409 21 9.46159V14.5384C21 15.4859 21 16.2517 20.9494 16.8721C20.8971 17.5114 20.7866 18.0752 20.5205 18.5976C20.0986 19.4255 19.4255 20.0986 18.5976 20.5204C18.0752 20.7866 17.5114 20.8971 16.8721 20.9493C16.2517 21 15.4859 21 14.5384 21H9.46161C8.51411 21 7.74836 21 7.12794 20.9493C6.48865 20.8971 5.92483 20.7866 5.40247 20.5204C4.57455 20.0986 3.90144 19.4255 3.4796 18.5976C3.21344 18.0752 3.10293 17.5114 3.0507 16.8721C3.00001 16.2517 3.00001 15.4859 3.00002 14.5384V9.46159C3.00001 8.51409 3.00001 7.74834 3.0507 7.12792C3.10293 6.48863 3.21344 5.92481 3.4796 5.40244C3.90144 4.57453 4.57455 3.90141 5.40247 3.47957C5.91721 3.2173 6.4722 3.10616 7.1 3.053V2.4C7.1 1.90294 7.50294 1.5 8 1.5ZM7.1 4.86117C6.67792 4.90689 6.41976 4.98142 6.21965 5.08338C5.73043 5.33265 5.33268 5.7304 5.08341 6.21962C4.96809 6.44595 4.88786 6.74652 4.84472 7.2745C4.8085 7.7178 4.80162 8.26521 4.80032 9H19.1997C19.1984 8.26521 19.1915 7.7178 19.1553 7.2745C19.1122 6.74652 19.032 6.44595 18.9166 6.21962C18.6674 5.7304 18.2696 5.33265 17.7804 5.08338C17.5803 4.98142 17.3221 4.90688 16.9 4.86117V5.6C16.9 6.09706 16.4971 6.5 16 6.5C15.5029 6.5 15.1 6.09706 15.1 5.6V4.80052C14.913 4.80003 14.7135 4.8 14.5 4.8H9.50003C9.28657 4.8 9.08705 4.80003 8.9 4.80052V5.6C8.9 6.09706 8.49706 6.5 8 6.5C7.50294 6.5 7.1 6.09706 7.1 5.6V4.86117ZM19.2 10.8H4.80002V14.5C4.80002 15.4949 4.80072 16.187 4.84472 16.7255C4.88786 17.2535 4.96809 17.5541 5.08341 17.7804C5.33268 18.2696 5.73043 18.6673 6.21965 18.9166C6.44597 19.0319 6.74654 19.1122 7.27452 19.1553C7.813 19.1993 8.50508 19.2 9.50002 19.2H14.5C15.495 19.2 16.187 19.1993 16.7255 19.1553C17.2535 19.1122 17.5541 19.0319 17.7804 18.9166C18.2696 18.6673 18.6674 18.2696 18.9166 17.7804C19.032 17.5541 19.1122 17.2535 19.1553 16.7255C19.1993 16.187 19.2 15.4949 19.2 14.5V10.8Z" fill="#2688EB"/>
</svg>

