<svg width="248" height="147" viewBox="0 0 248 147" fill="none" xmlns="http://www.w3.org/2000/svg">
    <g clip-path="url(#clip0_161_846)">
        <path d="M161.215 127.493C139.64 134.741 116.992 141.152 94.2886 143.517C73.7529 145.657 53.3784 141.972 35.5427 131.362C19.4236 121.789 1.21712 104.695 2.2971 84.3194C3.30454 65.3833 17.9568 47.7584 32.1013 36.3678C63.7591 10.8757 107.603 4.72991 147.006 2.79126C166.083 1.85009 185.708 2.7993 203.834 9.31512C221.597 15.7022 239.497 28.573 244.43 47.7343C250.547 71.521 228.343 88.5909 211.507 100.995C206.743 104.51 201.843 107.841 196.838 111.002C192.002 114.051 186.578 116.504 181.928 119.802C173.973 125.449 179.816 139.446 182.968 146.421C183.427 145.817 183.895 145.222 184.354 144.619C173.804 142.97 164.576 137.178 158.604 128.329C157.782 127.115 155.791 128.249 156.613 129.488C162.835 138.883 172.555 145.19 183.701 146.976C184.805 147.153 185.547 146.187 185.087 145.174C183.709 142.109 182.581 138.98 181.791 135.714C181.09 132.81 179.518 127.919 180.727 125.047C181.993 122.023 185.281 120.679 187.916 119.183C190.923 117.478 193.888 115.716 196.822 113.89C206.123 108.09 215.029 101.679 223.491 94.7206C237.345 83.338 251.031 68.786 247.404 49.3914C243.882 30.5518 227.577 16.7319 210.805 9.35534C192.913 1.50418 173.046 -0.402295 153.679 0.0642695C132.588 0.571055 111.085 3.04867 90.4926 7.63388C70.1906 12.1547 50.3239 19.6519 33.5923 32.225C19.2382 43.0204 6.1012 58.1596 1.30578 75.8086C-4.08605 95.6778 8.05967 113.303 22.8892 125.441C40.056 139.487 61.8974 146.984 84.0772 146.469C97.037 146.171 109.827 143.541 122.384 140.516C135.65 137.323 148.723 133.373 161.586 128.844C162.424 128.546 162.069 127.211 161.215 127.493Z" fill="white"/>
        <g filter="url(#filter0_d_161_846)">
            <path d="M98.2148 25.1953C98.2148 25.0521 98.1823 24.8372 98.1172 24.5508C98.0521 24.2643 97.974 23.9388 97.8828 23.5742C97.7917 23.1966 97.6875 22.7995 97.5703 22.3828C97.4531 21.9531 97.349 21.5365 97.2578 21.1328C97.1667 20.7292 97.0885 20.3516 97.0234 20C96.9583 19.6484 96.9258 19.3555 96.9258 19.1211C96.9258 18.8216 97.0104 18.5807 97.1797 18.3984C97.349 18.2031 97.5638 18.0534 97.8242 17.9492C98.0846 17.8451 98.3646 17.7734 98.6641 17.7344C98.9635 17.6953 99.25 17.6758 99.5234 17.6758C99.862 17.6758 100.188 17.7734 100.5 17.9688C100.826 18.151 101.047 18.4831 101.164 18.9648C101.307 19.4727 101.424 19.987 101.516 20.5078C101.62 21.0156 101.711 21.5169 101.789 22.0117C101.867 22.4935 101.939 22.9622 102.004 23.418C102.082 23.8737 102.16 24.2969 102.238 24.6875C102.316 25 102.414 25.2474 102.531 25.4297C102.661 25.612 102.811 25.7552 102.98 25.8594C103.163 25.9505 103.352 26.0091 103.547 26.0352C103.755 26.0612 103.977 26.0742 104.211 26.0742C104.471 26.0742 104.751 26.0482 105.051 25.9961C105.35 25.944 105.643 25.918 105.93 25.918C106.112 25.918 106.288 25.9505 106.457 26.0156C106.639 26.0677 106.802 26.1719 106.945 26.3281C107.089 26.4714 107.199 26.6732 107.277 26.9336C107.368 27.194 107.414 27.526 107.414 27.9297C107.414 28.2682 107.349 28.5547 107.219 28.7891C107.089 29.0104 106.841 29.1602 106.477 29.2383L105.773 29.3945C105.552 29.4336 105.344 29.4661 105.148 29.4922C104.966 29.5052 104.732 29.5247 104.445 29.5508C103.833 29.6159 103.527 29.8828 103.527 30.3516C103.527 30.3906 103.553 30.5664 103.605 30.8789C103.658 31.1914 103.723 31.582 103.801 32.0508C103.892 32.5065 103.99 33.0143 104.094 33.5742C104.198 34.1211 104.296 34.6484 104.387 35.1562C104.491 35.6641 104.582 36.1198 104.66 36.5234C104.738 36.9141 104.797 37.194 104.836 37.3633C104.901 37.6497 104.953 37.8711 104.992 38.0273C105.031 38.1836 105.051 38.3984 105.051 38.6719C105.051 38.8802 104.992 39.0885 104.875 39.2969C104.758 39.4922 104.582 39.668 104.348 39.8242C104.126 39.9805 103.853 40.1042 103.527 40.1953C103.202 40.2995 102.831 40.3516 102.414 40.3516C101.958 40.3516 101.626 40.2148 101.418 39.9414C101.223 39.6549 101.086 39.3294 101.008 38.9648C100.839 38.2878 100.676 37.5911 100.52 36.875C100.376 36.1589 100.233 35.4492 100.09 34.7461C99.9596 34.043 99.8294 33.3594 99.6992 32.6953C99.582 32.0182 99.4714 31.3737 99.3672 30.7617C99.3021 30.4753 99.1849 30.2669 99.0156 30.1367C98.8464 29.9935 98.6315 29.9219 98.3711 29.9219C97.4857 29.9219 96.5938 29.9544 95.6953 30.0195C94.8099 30.0716 93.9375 30.1172 93.0781 30.1562C92.7786 30.1823 92.5443 30.2799 92.375 30.4492C92.2057 30.6185 92.1211 30.8398 92.1211 31.1133C92.1211 31.7253 92.1276 32.3307 92.1406 32.9297C92.1536 33.5286 92.1602 34.1406 92.1602 34.7656C92.1602 35.4818 92.1471 36.2174 92.1211 36.9727C92.1081 37.7279 92.082 38.457 92.043 39.1602C92.0169 39.4206 91.9388 39.6354 91.8086 39.8047C91.6914 39.974 91.5352 40.1107 91.3398 40.2148C91.1576 40.319 90.9427 40.3906 90.6953 40.4297C90.4609 40.4688 90.2201 40.4883 89.9727 40.4883C89.3607 40.4883 88.8854 40.3841 88.5469 40.1758C88.2083 39.9805 88.0391 39.6419 88.0391 39.1602C88.0391 38.431 88.0586 37.6693 88.0977 36.875C88.1367 36.0807 88.1562 35.2799 88.1562 34.4727C88.1562 33.9258 88.1497 33.3984 88.1367 32.8906C88.1237 32.3698 88.1172 31.8359 88.1172 31.2891C88.1172 31.0417 88.0586 30.8594 87.9414 30.7422C87.8372 30.612 87.707 30.5078 87.5508 30.4297C87.3945 30.3516 87.2188 30.2799 87.0234 30.2148C86.8281 30.1367 86.6523 30.026 86.4961 29.8828C86.3398 29.7396 86.2031 29.5312 86.0859 29.2578C85.9818 28.9844 85.9297 28.6068 85.9297 28.125C85.9297 27.8646 85.9753 27.6628 86.0664 27.5195C86.1706 27.3633 86.2943 27.2396 86.4375 27.1484C86.5938 27.0573 86.7565 26.9857 86.9258 26.9336C87.0951 26.8685 87.2513 26.7904 87.3945 26.6992C87.5508 26.6081 87.6745 26.4974 87.7656 26.3672C87.8698 26.224 87.9219 26.0221 87.9219 25.7617C87.9219 25.6055 87.9154 25.4232 87.9023 25.2148C87.8893 24.9935 87.8763 24.7852 87.8633 24.5898C87.8503 24.3945 87.8372 24.2253 87.8242 24.082C87.8112 23.9258 87.8047 23.8216 87.8047 23.7695C87.8047 23.3268 87.8633 22.9753 87.9805 22.7148C88.1107 22.4414 88.2669 22.2396 88.4492 22.1094C88.6315 21.9661 88.8333 21.875 89.0547 21.8359C89.2891 21.7839 89.5104 21.7578 89.7188 21.7578C90.5 21.7578 91.0404 21.9076 91.3398 22.207C91.6523 22.4935 91.8216 22.9167 91.8477 23.4766L91.9258 25.5273C91.9518 25.8398 92.0365 26.0807 92.1797 26.25C92.3229 26.4062 92.5573 26.4844 92.8828 26.4844L97.3164 26.3281C97.694 26.3021 97.9349 26.1979 98.0391 26.0156C98.1562 25.8333 98.2148 25.5599 98.2148 25.1953ZM125.539 35.7227C125.917 35.3971 126.288 35.2344 126.652 35.2344C126.861 35.2344 127.049 35.2865 127.219 35.3906C127.388 35.4948 127.577 35.6576 127.785 35.8789C127.98 36.1784 128.117 36.4258 128.195 36.6211C128.286 36.8034 128.332 36.9857 128.332 37.168C128.332 37.5586 128.137 37.9297 127.746 38.2812C127.121 38.8021 126.444 39.2708 125.715 39.6875C124.986 40.0911 124.224 40.4362 123.43 40.7227C122.635 41.0091 121.815 41.224 120.969 41.3672C120.122 41.5234 119.283 41.6016 118.449 41.6016C117.395 41.6016 116.405 41.4648 115.48 41.1914C114.556 40.931 113.729 40.5534 113 40.0586C112.284 39.5638 111.678 38.9714 111.184 38.2812C110.689 37.5781 110.337 36.7904 110.129 35.918C110.012 35.5534 109.901 35.319 109.797 35.2148C109.706 35.0977 109.549 35.0391 109.328 35.0391C108.846 35.0391 108.475 34.9219 108.215 34.6875C107.954 34.4531 107.824 34.1146 107.824 33.6719C107.824 33.4896 107.837 33.3724 107.863 33.3203L107.902 32.9297C107.967 32.4609 108.091 32.1224 108.273 31.9141C108.469 31.7057 108.768 31.6016 109.172 31.6016H109.465C110.012 31.6016 110.396 31.3477 110.617 30.8398C111.021 29.9414 111.535 29.1211 112.16 28.3789C112.785 27.6367 113.488 27.0052 114.27 26.4844C115.051 25.9505 115.884 25.5404 116.77 25.2539C117.668 24.9544 118.579 24.8047 119.504 24.8047C120.467 24.8047 121.366 24.9479 122.199 25.2344C123.046 25.5078 123.781 25.8919 124.406 26.3867C125.031 26.8815 125.52 27.4609 125.871 28.125C126.236 28.7891 126.418 29.5052 126.418 30.2734C126.418 30.8073 126.314 31.2956 126.105 31.7383C125.897 32.181 125.598 32.5716 125.207 32.9102C124.816 33.2357 124.341 33.5026 123.781 33.7109C123.234 33.9193 122.609 34.056 121.906 34.1211L115.129 34.8047C114.868 34.8047 114.654 34.8698 114.484 35C114.328 35.1302 114.25 35.306 114.25 35.5273C114.25 35.8659 114.374 36.1914 114.621 36.5039C114.882 36.8164 115.22 37.0964 115.637 37.3438C116.066 37.5781 116.555 37.7669 117.102 37.9102C117.661 38.0534 118.234 38.125 118.82 38.125C119.38 38.125 119.953 38.0729 120.539 37.9688C121.138 37.8516 121.724 37.6888 122.297 37.4805C122.883 37.2721 123.449 37.0247 123.996 36.7383C124.543 36.4388 125.057 36.1003 125.539 35.7227ZM121.184 30.6836C121.379 30.6445 121.548 30.5534 121.691 30.4102C121.835 30.2539 121.906 30.0651 121.906 29.8438C121.906 29.6484 121.835 29.4661 121.691 29.2969C121.548 29.1276 121.353 28.9779 121.105 28.8477C120.858 28.7044 120.572 28.5938 120.246 28.5156C119.921 28.4375 119.576 28.3984 119.211 28.3984C118.677 28.3984 118.13 28.4766 117.57 28.6328C117.01 28.7891 116.503 28.9974 116.047 29.2578C115.591 29.5052 115.22 29.7852 114.934 30.0977C114.647 30.3971 114.504 30.6966 114.504 30.9961C114.504 31.2956 114.686 31.4453 115.051 31.4453C115.272 31.4453 115.63 31.4193 116.125 31.3672C116.62 31.3151 117.167 31.2565 117.766 31.1914C118.365 31.1133 118.97 31.0286 119.582 30.9375C120.194 30.8464 120.728 30.7617 121.184 30.6836ZM128.527 17.7539C128.527 17.0768 128.723 16.5951 129.113 16.3086C129.504 16.0221 130.148 15.8789 131.047 15.8789C131.359 15.8789 131.633 15.9115 131.867 15.9766C132.102 16.0417 132.297 16.1523 132.453 16.3086C132.609 16.4518 132.733 16.6536 132.824 16.9141C132.928 17.1615 133.013 17.4805 133.078 17.8711C133.247 19.0299 133.417 20.2474 133.586 21.5234C133.768 22.7865 133.938 24.0495 134.094 25.3125C134.263 26.5625 134.419 27.7865 134.562 28.9844C134.706 30.1693 134.829 31.276 134.934 32.3047C135.051 33.3203 135.135 34.2253 135.188 35.0195C135.253 35.8008 135.285 36.4193 135.285 36.875C135.285 37.3438 135.24 37.7409 135.148 38.0664C135.07 38.3919 134.927 38.6523 134.719 38.8477C134.523 39.043 134.263 39.1862 133.938 39.2773C133.625 39.3555 133.234 39.3945 132.766 39.3945C132.31 39.3945 131.945 39.2773 131.672 39.043C131.411 38.8086 131.281 38.4505 131.281 37.9688C131.281 37.474 131.242 36.8164 131.164 35.9961C131.086 35.1628 130.982 34.2383 130.852 33.2227C130.721 32.207 130.572 31.1263 130.402 29.9805C130.246 28.8346 130.077 27.7018 129.895 26.582C129.725 25.4622 129.556 24.388 129.387 23.3594C129.23 22.3177 129.087 21.3997 128.957 20.6055C128.827 19.7982 128.723 19.1406 128.645 18.6328C128.566 18.112 128.527 17.819 128.527 17.7539ZM137.355 17.7539C137.355 17.0768 137.551 16.5951 137.941 16.3086C138.332 16.0221 138.977 15.8789 139.875 15.8789C140.188 15.8789 140.461 15.9115 140.695 15.9766C140.93 16.0417 141.125 16.1523 141.281 16.3086C141.438 16.4518 141.561 16.6536 141.652 16.9141C141.757 17.1615 141.841 17.4805 141.906 17.8711C142.076 19.0299 142.245 20.2474 142.414 21.5234C142.596 22.7865 142.766 24.0495 142.922 25.3125C143.091 26.5625 143.247 27.7865 143.391 28.9844C143.534 30.1693 143.658 31.276 143.762 32.3047C143.879 33.3203 143.964 34.2253 144.016 35.0195C144.081 35.8008 144.113 36.4193 144.113 36.875C144.113 37.3438 144.068 37.7409 143.977 38.0664C143.898 38.3919 143.755 38.6523 143.547 38.8477C143.352 39.043 143.091 39.1862 142.766 39.2773C142.453 39.3555 142.062 39.3945 141.594 39.3945C141.138 39.3945 140.773 39.2773 140.5 39.043C140.24 38.8086 140.109 38.4505 140.109 37.9688C140.109 37.474 140.07 36.8164 139.992 35.9961C139.914 35.1628 139.81 34.2383 139.68 33.2227C139.549 32.207 139.4 31.1263 139.23 29.9805C139.074 28.8346 138.905 27.7018 138.723 26.582C138.553 25.4622 138.384 24.388 138.215 23.3594C138.059 22.3177 137.915 21.3997 137.785 20.6055C137.655 19.7982 137.551 19.1406 137.473 18.6328C137.395 18.112 137.355 17.819 137.355 17.7539ZM147.492 33.5156C147.492 33.2943 147.518 33.0469 147.57 32.7734C147.622 32.5 147.648 32.2005 147.648 31.875C147.648 31.6536 147.551 31.4844 147.355 31.3672C147.173 31.25 146.965 31.1198 146.73 30.9766C146.496 30.8333 146.281 30.651 146.086 30.4297C145.904 30.2083 145.812 29.8893 145.812 29.4727C145.812 29.1732 145.891 28.8737 146.047 28.5742C146.216 28.2747 146.457 28.0013 146.77 27.7539C147.538 27.181 148.332 26.6667 149.152 26.2109C149.986 25.7552 150.812 25.3711 151.633 25.0586C152.466 24.7461 153.286 24.5052 154.094 24.3359C154.901 24.1667 155.676 24.082 156.418 24.082C157.668 24.082 158.84 24.3164 159.934 24.7852C161.04 25.2409 161.997 25.8724 162.805 26.6797C163.625 27.474 164.27 28.4115 164.738 29.4922C165.22 30.5599 165.461 31.7057 165.461 32.9297C165.461 34.1276 165.207 35.2669 164.699 36.3477C164.204 37.4154 163.534 38.3529 162.688 39.1602C161.841 39.9674 160.845 40.6055 159.699 41.0742C158.566 41.556 157.368 41.7969 156.105 41.7969C154.868 41.7969 153.723 41.5885 152.668 41.1719C151.613 40.7552 150.702 40.1823 149.934 39.4531C149.165 38.7109 148.566 37.8385 148.137 36.8359C147.707 35.8203 147.492 34.7135 147.492 33.5156ZM156.535 38.2812C157.082 38.2812 157.648 38.1706 158.234 37.9492C158.82 37.7279 159.354 37.4089 159.836 36.9922C160.331 36.5625 160.734 36.0417 161.047 35.4297C161.372 34.8177 161.535 34.1276 161.535 33.3594C161.535 32.5781 161.392 31.849 161.105 31.1719C160.819 30.4948 160.422 29.9089 159.914 29.4141C159.419 28.9062 158.827 28.5091 158.137 28.2227C157.46 27.9362 156.724 27.793 155.93 27.793C154.484 27.793 153.378 28.1706 152.609 28.9258C151.841 29.668 151.457 30.8138 151.457 32.3633C151.457 33.2096 151.581 33.9974 151.828 34.7266C152.089 35.4427 152.447 36.0677 152.902 36.6016C153.358 37.1224 153.892 37.5326 154.504 37.832C155.129 38.1315 155.806 38.2812 156.535 38.2812ZM167.727 17.5977C167.674 17.4154 167.629 17.2526 167.59 17.1094C167.564 16.9661 167.551 16.8229 167.551 16.6797C167.551 16.3151 167.661 16.0091 167.883 15.7617C168.117 15.5143 168.462 15.3906 168.918 15.3906C170.936 15.3906 172.043 15.8724 172.238 16.8359C172.473 18.0599 172.688 19.2904 172.883 20.5273C173.078 21.7643 173.247 23.0208 173.391 24.2969C173.547 25.5599 173.664 26.849 173.742 28.1641C173.833 29.4661 173.879 30.8008 173.879 32.168C173.879 32.4284 173.866 32.6823 173.84 32.9297C173.814 33.1641 173.762 33.3789 173.684 33.5742C173.605 33.7565 173.495 33.9062 173.352 34.0234C173.221 34.1406 173.039 34.1992 172.805 34.1992L171.164 33.9648C170.826 33.9258 170.585 33.8281 170.441 33.6719C170.311 33.5026 170.233 33.2682 170.207 32.9688C170.103 30.5859 169.842 28.0924 169.426 25.4883C169.009 22.8841 168.443 20.2539 167.727 17.5977ZM171.75 41.6406C171.372 41.6406 171.014 41.582 170.676 41.4648C170.35 41.3607 170.064 41.2044 169.816 40.9961C169.582 40.8008 169.393 40.5664 169.25 40.293C169.107 40.0195 169.035 39.7201 169.035 39.3945C169.035 38.8477 169.25 38.4049 169.68 38.0664C170.122 37.7279 170.708 37.5586 171.438 37.5586C171.776 37.5586 172.102 37.6237 172.414 37.7539C172.727 37.8711 173 38.0339 173.234 38.2422C173.482 38.4505 173.677 38.6979 173.82 38.9844C173.964 39.2578 174.035 39.5443 174.035 39.8438C174.035 40.4036 173.827 40.8398 173.41 41.1523C173.007 41.4779 172.453 41.6406 171.75 41.6406Z" fill="white"/>
        </g>
        <g filter="url(#filter1_d_161_846)">
            <path d="M50.7383 67.6777C50.6602 67.6777 50.5918 67.7396 50.5332 67.8633C50.2858 68.3451 50.0221 68.7812 49.7422 69.1719C49.4688 69.5625 49.1921 69.8945 48.9121 70.168C48.6322 70.4414 48.3555 70.653 48.082 70.8027C47.8086 70.946 47.5514 71.0176 47.3105 71.0176C47.0762 71.0176 46.8581 70.9688 46.6562 70.8711C46.4609 70.7669 46.2461 70.5749 46.0117 70.2949C45.7839 70.015 45.5202 69.6276 45.2207 69.1328C44.9277 68.638 44.5664 67.9935 44.1367 67.1992C44.0651 67.069 43.9902 66.9746 43.9121 66.916C43.8405 66.8509 43.7754 66.8184 43.7168 66.8184C43.6322 66.8184 43.554 66.9095 43.4824 67.0918C43.4108 67.2676 43.349 67.5182 43.2969 67.8438C43.2448 68.1628 43.2025 68.5501 43.1699 69.0059C43.1439 69.4551 43.1309 69.9531 43.1309 70.5C43.1309 70.8255 43.1471 71.151 43.1797 71.4766C43.2188 71.8021 43.2383 72.1374 43.2383 72.4824C43.2383 72.5996 43.2057 72.7103 43.1406 72.8145C43.0755 72.9121 42.9876 72.9967 42.877 73.0684C42.7728 73.1465 42.6458 73.2083 42.4961 73.2539C42.3529 73.2995 42.1999 73.3223 42.0371 73.3223C41.7116 73.3223 41.4772 73.127 41.334 72.7363C41.1908 72.3457 41.1191 71.7207 41.1191 70.8613C41.1191 69.7741 41.1777 68.7878 41.2949 67.9023C41.4186 67.0104 41.5911 66.2487 41.8125 65.6172C42.0404 64.9792 42.3073 64.4876 42.6133 64.1426C42.9258 63.791 43.2741 63.6152 43.6582 63.6152C43.9967 63.6152 44.319 63.8105 44.625 64.2012C44.9375 64.5853 45.2728 65.2103 45.6309 66.0762C45.7741 66.4277 45.9271 66.7565 46.0898 67.0625C46.2591 67.3685 46.4251 67.6354 46.5879 67.8633C46.7572 68.0846 46.9199 68.2604 47.0762 68.3906C47.2324 68.5143 47.3724 68.5762 47.4961 68.5762C47.6198 68.5762 47.737 68.5501 47.8477 68.498C47.9648 68.4395 48.0951 68.319 48.2383 68.1367C48.388 67.9479 48.5605 67.6745 48.7559 67.3164C48.9577 66.9583 49.2051 66.4798 49.498 65.8809C49.6543 65.5684 49.7943 65.3079 49.918 65.0996C50.0417 64.8913 50.1654 64.7253 50.2891 64.6016C50.4128 64.4714 50.543 64.3802 50.6797 64.3281C50.8164 64.2695 50.9694 64.2402 51.1387 64.2402C51.3405 64.2402 51.5391 64.3477 51.7344 64.5625C51.9297 64.7773 52.1185 65.0638 52.3008 65.4219C52.4896 65.7799 52.6719 66.1966 52.8477 66.6719C53.0234 67.1471 53.1927 67.6452 53.3555 68.166C53.5247 68.6868 53.6875 69.2174 53.8438 69.7578C54.0065 70.2917 54.1628 70.7995 54.3125 71.2812C54.3516 71.4245 54.3776 71.5254 54.3906 71.584C54.4102 71.6361 54.4199 71.7012 54.4199 71.7793C54.4199 71.89 54.3841 72.0007 54.3125 72.1113C54.2474 72.2155 54.1595 72.3099 54.0488 72.3945C53.9382 72.4792 53.8112 72.5475 53.668 72.5996C53.5312 72.6517 53.3945 72.6777 53.2578 72.6777C53.0755 72.6777 52.9323 72.6582 52.8281 72.6191C52.7305 72.5736 52.6523 72.4954 52.5938 72.3848C52.5612 72.3262 52.5059 72.1699 52.4277 71.916C52.3496 71.6621 52.2552 71.3626 52.1445 71.0176C52.0404 70.666 51.9232 70.2949 51.793 69.9043C51.6693 69.5137 51.5423 69.1556 51.4121 68.8301C51.2884 68.498 51.168 68.2246 51.0508 68.0098C50.9336 67.7884 50.8294 67.6777 50.7383 67.6777ZM59.2246 73.2637C58.834 73.2637 58.4434 73.1693 58.0527 72.9805C57.6621 72.7852 57.2878 72.5215 56.9297 72.1895C56.5716 71.8574 56.2396 71.4668 55.9336 71.0176C55.6276 70.5618 55.3607 70.0736 55.1328 69.5527C54.9049 69.0254 54.7259 68.4753 54.5957 67.9023C54.4655 67.3294 54.4004 66.7565 54.4004 66.1836C54.4004 65.7409 54.4915 65.4251 54.6738 65.2363C54.8561 65.041 55.1523 64.9434 55.5625 64.9434C56.0768 64.9434 56.3633 65.1549 56.4219 65.5781C56.5391 66.4766 56.7018 67.2871 56.9102 68.0098C57.1185 68.7324 57.3626 69.3477 57.6426 69.8555C57.929 70.3633 58.2448 70.7539 58.5898 71.0273C58.9414 71.3008 59.3125 71.4375 59.7031 71.4375C59.9831 71.4375 60.2467 71.3691 60.4941 71.2324C60.7415 71.0892 60.9564 70.8906 61.1387 70.6367C61.2038 70.5391 61.2461 70.4447 61.2656 70.3535C61.2917 70.2624 61.3112 70.1582 61.3242 70.041C61.3568 69.5788 61.3926 69.1263 61.4316 68.6836C61.4772 68.2344 61.5195 67.7852 61.5586 67.3359C61.5716 67.1406 61.5977 66.9811 61.6367 66.8574C61.6758 66.7337 61.7344 66.6361 61.8125 66.5645C61.8906 66.4928 61.9915 66.444 62.1152 66.418C62.2454 66.3919 62.4082 66.3789 62.6035 66.3789C62.8249 66.3789 63.0137 66.4115 63.1699 66.4766C63.3262 66.5352 63.4531 66.6361 63.5508 66.7793C63.6484 66.916 63.7168 67.0983 63.7559 67.3262C63.8014 67.5475 63.8242 67.8242 63.8242 68.1562C63.8242 68.4427 63.8014 68.6934 63.7559 68.9082C63.7168 69.1165 63.668 69.3151 63.6094 69.5039C63.5573 69.6862 63.5052 69.8685 63.4531 70.0508C63.4076 70.2266 63.3783 70.4219 63.3652 70.6367C63.3327 71.1771 63.3034 71.6458 63.2773 72.043C63.2513 72.4336 63.2285 72.7689 63.209 73.0488C63.196 73.3288 63.1829 73.5697 63.1699 73.7715C63.1634 73.9733 63.1569 74.1523 63.1504 74.3086C63.1439 74.4714 63.1406 74.6243 63.1406 74.7676C63.1406 74.9108 63.1406 75.0671 63.1406 75.2363C63.1406 75.5423 63.1536 75.8743 63.1797 76.2324C63.2057 76.597 63.2318 76.9453 63.2578 77.2773C63.2904 77.6094 63.3197 77.9023 63.3457 78.1562C63.3717 78.4102 63.3848 78.5859 63.3848 78.6836C63.3848 78.8073 63.3457 78.9245 63.2676 79.0352C63.1895 79.1458 63.0853 79.2435 62.9551 79.3281C62.8249 79.4128 62.6719 79.4779 62.4961 79.5234C62.3203 79.5755 62.1348 79.6016 61.9395 79.6016C61.7702 79.6016 61.6335 79.543 61.5293 79.4258C61.4316 79.3151 61.3763 79.1654 61.3633 78.9766C61.3438 78.7292 61.3275 78.4264 61.3145 78.0684C61.3014 77.7168 61.2884 77.3392 61.2754 76.9355C61.2624 76.5384 61.2526 76.1315 61.2461 75.7148C61.2461 75.3047 61.2428 74.9206 61.2363 74.5625C61.2298 74.2109 61.2266 73.9017 61.2266 73.6348C61.2266 73.3678 61.2266 73.1758 61.2266 73.0586C61.2266 72.9414 61.2135 72.86 61.1875 72.8145C61.1615 72.7624 61.1126 72.7363 61.041 72.7363C61.002 72.7363 60.9499 72.7493 60.8848 72.7754C60.8197 72.7949 60.7448 72.8307 60.6602 72.8828C60.4323 73.0195 60.2012 73.1172 59.9668 73.1758C59.7324 73.2344 59.485 73.2637 59.2246 73.2637ZM69.9082 65.1191C69.9082 65.0215 69.9505 64.9271 70.0352 64.8359C70.1198 64.7383 70.2305 64.6536 70.3672 64.582C70.5039 64.5039 70.6569 64.4421 70.8262 64.3965C71.002 64.3444 71.1777 64.3184 71.3535 64.3184C71.4512 64.3184 71.5326 64.3444 71.5977 64.3965C71.6693 64.4486 71.7311 64.5495 71.7832 64.6992C71.8353 64.8424 71.8809 65.0475 71.9199 65.3145C71.9655 65.5749 72.0078 65.9167 72.0469 66.3398C72.0729 66.4701 72.0957 66.571 72.1152 66.6426C72.1413 66.7077 72.1738 66.7402 72.2129 66.7402C72.2715 66.7402 72.3301 66.6393 72.3887 66.4375C72.8639 65.0638 73.5508 64.377 74.4492 64.377C74.8659 64.377 75.2435 64.5072 75.582 64.7676C75.9271 65.028 76.2461 65.4544 76.5391 66.0469C76.8385 66.6328 77.1217 67.4076 77.3887 68.3711C77.6556 69.3281 77.9225 70.5098 78.1895 71.916C78.2025 71.9876 78.2122 72.0527 78.2188 72.1113C78.2253 72.1699 78.2285 72.2253 78.2285 72.2773C78.2285 72.4271 78.1927 72.5573 78.1211 72.668C78.056 72.7721 77.9681 72.86 77.8574 72.9316C77.7467 72.9967 77.623 73.0456 77.4863 73.0781C77.3496 73.1172 77.2129 73.1367 77.0762 73.1367C76.8027 73.1367 76.6042 73.1074 76.4805 73.0488C76.3633 72.9902 76.2884 72.8796 76.2559 72.7168C76.0671 71.7272 75.8815 70.8483 75.6992 70.0801C75.5234 69.3118 75.3477 68.6673 75.1719 68.1465C75.0026 67.6191 74.8333 67.2188 74.6641 66.9453C74.4948 66.6719 74.3255 66.5352 74.1562 66.5352C73.987 66.5352 73.8275 66.6426 73.6777 66.8574C73.5345 67.0658 73.3945 67.3945 73.2578 67.8438C73.1211 68.293 72.9876 68.8626 72.8574 69.5527C72.7337 70.2428 72.6133 71.0664 72.4961 72.0234C72.4635 72.2839 72.3333 72.4922 72.1055 72.6484C71.8776 72.8047 71.5879 72.8828 71.2363 72.8828C71.002 72.8828 70.8229 72.834 70.6992 72.7363C70.5755 72.6387 70.5072 72.5052 70.4941 72.3359C70.4355 70.9818 70.3704 69.8685 70.2988 68.9961C70.2337 68.1172 70.1719 67.4141 70.1133 66.8867C70.0547 66.3529 70.0059 65.9557 69.9668 65.6953C69.9277 65.4349 69.9082 65.2428 69.9082 65.1191ZM85.3867 64.4648C85.7448 64.4648 86.0898 64.5202 86.4219 64.6309C86.7539 64.7415 87.0469 64.8945 87.3008 65.0898C87.5547 65.2852 87.7565 65.5195 87.9062 65.793C88.0625 66.0664 88.1406 66.3691 88.1406 66.7012C88.1406 66.8379 88.1081 66.9714 88.043 67.1016C87.9844 67.2253 87.903 67.3359 87.7988 67.4336C87.6947 67.5247 87.5742 67.5996 87.4375 67.6582C87.3073 67.7103 87.1706 67.7363 87.0273 67.7363C87.0143 67.7363 87.0013 67.7396 86.9883 67.7461C86.9818 67.7461 86.972 67.7461 86.959 67.7461C86.946 67.7526 86.9329 67.7559 86.9199 67.7559L86.959 68.5371C86.985 69.4681 87.1152 70.1484 87.3496 70.5781C87.5905 71.0078 87.903 71.2227 88.2871 71.2227C88.4238 71.2227 88.5443 71.2096 88.6484 71.1836C88.7591 71.1576 88.86 71.1283 88.9512 71.0957C89.0488 71.0566 89.14 71.0241 89.2246 70.998C89.3092 70.972 89.3939 70.959 89.4785 70.959C89.6283 70.959 89.7585 71.0241 89.8691 71.1543C89.9863 71.2845 90.0449 71.4408 90.0449 71.623C90.0449 71.8053 89.9733 71.9876 89.8301 72.1699C89.6934 72.3522 89.5111 72.5182 89.2832 72.668C89.0553 72.8112 88.7982 72.9284 88.5117 73.0195C88.2253 73.1107 87.9355 73.1562 87.6426 73.1562C87.1348 73.1562 86.6888 72.9479 86.3047 72.5312C85.9206 72.1081 85.6471 71.4896 85.4844 70.6758C85.4453 70.5456 85.3932 70.4805 85.3281 70.4805C85.25 70.4805 85.1816 70.5195 85.123 70.5977C84.4785 71.4115 83.7917 72.0234 83.0625 72.4336C82.3333 72.8372 81.6139 73.0391 80.9043 73.0391C80.5723 73.0391 80.2728 72.9902 80.0059 72.8926C79.7389 72.7949 79.5111 72.6582 79.3223 72.4824C79.14 72.3001 78.9967 72.082 78.8926 71.8281C78.7949 71.5677 78.7461 71.278 78.7461 70.959C78.7461 70.5098 78.8438 70.0378 79.0391 69.543C79.2409 69.0482 79.5111 68.5599 79.8496 68.0781C80.1882 67.5964 80.5788 67.1374 81.0215 66.7012C81.4707 66.265 81.9395 65.8809 82.4277 65.5488C82.9225 65.2168 83.4238 64.9531 83.9316 64.7578C84.4395 64.5625 84.9245 64.4648 85.3867 64.4648ZM85.0645 67.8438C85.1816 67.6224 85.2891 67.4629 85.3867 67.3652C85.4844 67.2611 85.6243 67.1927 85.8066 67.1602C85.9499 67.1406 86.0215 67.0951 86.0215 67.0234C86.0215 66.9714 86.002 66.916 85.9629 66.8574C85.8392 66.6882 85.709 66.5417 85.5723 66.418C85.4355 66.2878 85.2533 66.2227 85.0254 66.2227C84.778 66.2227 84.5013 66.2943 84.1953 66.4375C83.8893 66.5807 83.5768 66.7728 83.2578 67.0137C82.9453 67.248 82.6361 67.5182 82.3301 67.8242C82.0306 68.1237 81.7637 68.4329 81.5293 68.752C81.2949 69.071 81.1061 69.3867 80.9629 69.6992C80.8197 70.0117 80.748 70.2917 80.748 70.5391C80.748 70.7604 80.8066 70.9329 80.9238 71.0566C81.0475 71.1803 81.2135 71.2422 81.4219 71.2422C81.9557 71.2422 82.5384 70.959 83.1699 70.3926C83.8014 69.8262 84.4329 68.9766 85.0645 67.8438ZM91.2363 73.4199C91.1908 72.554 91.1159 71.7565 91.0117 71.0273C90.9141 70.2917 90.8099 69.6504 90.6992 69.1035C90.5951 68.5566 90.5007 68.1139 90.416 67.7754C90.3379 67.4368 90.2988 67.2253 90.2988 67.1406C90.2988 67.0169 90.3444 66.8965 90.4355 66.7793C90.5332 66.6621 90.6536 66.5612 90.7969 66.4766C90.9401 66.3854 91.0931 66.3138 91.2559 66.2617C91.4251 66.2096 91.5781 66.1836 91.7148 66.1836C91.8255 66.1836 91.9199 66.2031 91.998 66.2422C92.0827 66.2812 92.1413 66.3464 92.1738 66.4375C92.2064 66.5482 92.2357 66.6654 92.2617 66.7891C92.2943 66.9062 92.3268 67.0495 92.3594 67.2188C92.3984 67.4596 92.4505 67.5801 92.5156 67.5801C92.5872 67.5801 92.6686 67.4727 92.7598 67.2578C92.89 66.9583 93.0299 66.7109 93.1797 66.5156C93.3294 66.3203 93.4889 66.1673 93.6582 66.0566C93.834 65.9395 94.013 65.8581 94.1953 65.8125C94.3841 65.7669 94.5794 65.7441 94.7812 65.7441C95.3932 65.7441 95.9108 65.985 96.334 66.4668C96.7637 66.9486 97.099 67.6452 97.3398 68.5566C97.3724 68.6608 97.4017 68.7292 97.4277 68.7617C97.4538 68.7878 97.4831 68.8008 97.5156 68.8008C97.5482 68.8008 97.5807 68.7878 97.6133 68.7617C97.6523 68.7292 97.6882 68.6673 97.7207 68.5762C97.877 68.153 98.0592 67.7949 98.2676 67.502C98.4759 67.2025 98.6908 66.9616 98.9121 66.7793C99.14 66.5905 99.3711 66.4538 99.6055 66.3691C99.8398 66.2845 100.064 66.2422 100.279 66.2422C100.676 66.2422 101.035 66.3887 101.354 66.6816C101.679 66.9681 101.965 67.4141 102.213 68.0195C102.467 68.6185 102.685 69.3802 102.867 70.3047C103.056 71.2227 103.212 72.3132 103.336 73.5762C103.336 73.9277 103.229 74.1719 103.014 74.3086C102.799 74.4518 102.506 74.5234 102.135 74.5234C101.894 74.5234 101.705 74.4714 101.568 74.3672C101.432 74.263 101.354 74.1263 101.334 73.957C101.249 73.0521 101.155 72.248 101.051 71.5449C100.953 70.8353 100.846 70.2396 100.729 69.7578C100.611 69.2695 100.481 68.8984 100.338 68.6445C100.201 68.3906 100.048 68.2637 99.8789 68.2637C99.7943 68.2637 99.6868 68.3255 99.5566 68.4492C99.4329 68.5729 99.2995 68.8008 99.1562 69.1328C99.013 69.4583 98.8633 69.9076 98.707 70.4805C98.5508 71.0469 98.401 71.7728 98.2578 72.6582C98.2188 72.9056 98.0983 73.0944 97.8965 73.2246C97.7012 73.3548 97.4603 73.4199 97.1738 73.4199C96.8418 73.4199 96.6107 73.3678 96.4805 73.2637C96.3568 73.1595 96.2884 72.9837 96.2754 72.7363C96.2493 72.3066 96.2038 71.8802 96.1387 71.457C96.0801 71.0273 96.0052 70.6204 95.9141 70.2363C95.8229 69.8457 95.722 69.4876 95.6113 69.1621C95.5007 68.8301 95.3835 68.5436 95.2598 68.3027C95.1361 68.0553 95.0091 67.8633 94.8789 67.7266C94.7487 67.5898 94.6217 67.5215 94.498 67.5215C94.3353 67.5215 94.1758 67.6354 94.0195 67.8633C93.8698 68.0911 93.7331 68.4134 93.6094 68.8301C93.4922 69.2467 93.3978 69.748 93.3262 70.334C93.2546 70.9199 93.2188 71.5742 93.2188 72.2969C93.2188 72.4206 93.222 72.5443 93.2285 72.668C93.235 72.7852 93.2383 72.9089 93.2383 73.0391C93.2383 73.2344 93.2057 73.3939 93.1406 73.5176C93.082 73.6413 92.9941 73.7389 92.877 73.8105C92.7663 73.8822 92.6361 73.931 92.4863 73.957C92.3366 73.9831 92.1738 73.9961 91.998 73.9961C91.8353 73.9961 91.7051 73.9831 91.6074 73.957C91.5098 73.9375 91.4349 73.9049 91.3828 73.8594C91.3307 73.8138 91.2949 73.752 91.2754 73.6738C91.2559 73.6022 91.2428 73.5176 91.2363 73.4199ZM112.877 70.8613C113.066 70.6986 113.251 70.6172 113.434 70.6172C113.538 70.6172 113.632 70.6432 113.717 70.6953C113.801 70.7474 113.896 70.8288 114 70.9395C114.098 71.0892 114.166 71.2129 114.205 71.3105C114.251 71.4017 114.273 71.4928 114.273 71.584C114.273 71.7793 114.176 71.9648 113.98 72.1406C113.668 72.401 113.329 72.6354 112.965 72.8438C112.6 73.0456 112.219 73.2181 111.822 73.3613C111.425 73.5046 111.015 73.612 110.592 73.6836C110.169 73.7617 109.749 73.8008 109.332 73.8008C108.805 73.8008 108.31 73.7324 107.848 73.5957C107.385 73.4655 106.972 73.2767 106.607 73.0293C106.249 72.7819 105.947 72.4857 105.699 72.1406C105.452 71.7891 105.276 71.3952 105.172 70.959C105.113 70.7767 105.058 70.6595 105.006 70.6074C104.96 70.5488 104.882 70.5195 104.771 70.5195C104.531 70.5195 104.345 70.4609 104.215 70.3438C104.085 70.2266 104.02 70.0573 104.02 69.8359C104.02 69.7448 104.026 69.6862 104.039 69.6602L104.059 69.4648C104.091 69.2305 104.153 69.0612 104.244 68.957C104.342 68.8529 104.492 68.8008 104.693 68.8008H104.84C105.113 68.8008 105.305 68.6738 105.416 68.4199C105.618 67.9707 105.875 67.5605 106.188 67.1895C106.5 66.8184 106.852 66.5026 107.242 66.2422C107.633 65.9753 108.049 65.7702 108.492 65.627C108.941 65.4772 109.397 65.4023 109.859 65.4023C110.341 65.4023 110.79 65.474 111.207 65.6172C111.63 65.7539 111.998 65.946 112.311 66.1934C112.623 66.4408 112.867 66.7305 113.043 67.0625C113.225 67.3945 113.316 67.7526 113.316 68.1367C113.316 68.4036 113.264 68.6478 113.16 68.8691C113.056 69.0905 112.906 69.2858 112.711 69.4551C112.516 69.6178 112.278 69.7513 111.998 69.8555C111.725 69.9596 111.412 70.028 111.061 70.0605L107.672 70.4023C107.542 70.4023 107.434 70.4349 107.35 70.5C107.271 70.5651 107.232 70.653 107.232 70.7637C107.232 70.9329 107.294 71.0957 107.418 71.252C107.548 71.4082 107.717 71.5482 107.926 71.6719C108.141 71.7891 108.385 71.8835 108.658 71.9551C108.938 72.0267 109.225 72.0625 109.518 72.0625C109.798 72.0625 110.084 72.0365 110.377 71.9844C110.676 71.9258 110.969 71.8444 111.256 71.7402C111.549 71.6361 111.832 71.5124 112.105 71.3691C112.379 71.2194 112.636 71.0501 112.877 70.8613ZM110.699 68.3418C110.797 68.3223 110.882 68.2767 110.953 68.2051C111.025 68.127 111.061 68.0326 111.061 67.9219C111.061 67.8242 111.025 67.7331 110.953 67.6484C110.882 67.5638 110.784 67.4889 110.66 67.4238C110.536 67.3522 110.393 67.2969 110.23 67.2578C110.068 67.2188 109.895 67.1992 109.713 67.1992C109.446 67.1992 109.173 67.2383 108.893 67.3164C108.613 67.3945 108.359 67.4987 108.131 67.6289C107.903 67.7526 107.717 67.8926 107.574 68.0488C107.431 68.1986 107.359 68.3483 107.359 68.498C107.359 68.6478 107.451 68.7227 107.633 68.7227C107.743 68.7227 107.923 68.7096 108.17 68.6836C108.417 68.6576 108.691 68.6283 108.99 68.5957C109.29 68.5566 109.592 68.5143 109.898 68.4688C110.204 68.4232 110.471 68.3809 110.699 68.3418ZM121.109 63.0391C120.921 63.0391 120.742 63.013 120.572 62.9609C120.41 62.9023 120.266 62.8242 120.143 62.7266C120.025 62.6224 119.931 62.502 119.859 62.3652C119.788 62.2285 119.752 62.0788 119.752 61.916C119.752 61.6426 119.859 61.4212 120.074 61.252C120.296 61.0827 120.589 60.998 120.953 60.998C121.122 60.998 121.285 61.0306 121.441 61.0957C121.598 61.1543 121.734 61.2357 121.852 61.3398C121.975 61.444 122.073 61.5677 122.145 61.7109C122.216 61.8477 122.252 61.9909 122.252 62.1406C122.252 62.4206 122.148 62.6419 121.939 62.8047C121.738 62.9609 121.461 63.0391 121.109 63.0391ZM119.771 66.0176C119.771 65.7897 119.869 65.6042 120.064 65.4609C120.266 65.3112 120.53 65.2363 120.855 65.2363C121.441 65.2363 121.754 65.4382 121.793 65.8418C121.819 66.1217 121.845 66.4375 121.871 66.7891C121.904 67.1406 121.933 67.515 121.959 67.9121C121.992 68.3027 122.018 68.7096 122.037 69.1328C122.063 69.5495 122.086 69.9629 122.105 70.373C122.125 70.7767 122.141 71.1673 122.154 71.5449C122.167 71.9225 122.174 72.2676 122.174 72.5801C122.174 72.9056 122.057 73.1497 121.822 73.3125C121.594 73.4753 121.259 73.5566 120.816 73.5566C120.615 73.5566 120.455 73.5078 120.338 73.4102C120.227 73.319 120.172 73.1823 120.172 73C120.172 72.1016 120.149 71.2617 120.104 70.4805C120.064 69.6927 120.019 68.9928 119.967 68.3809C119.921 67.7689 119.876 67.2611 119.83 66.8574C119.791 66.4473 119.771 66.1673 119.771 66.0176ZM126.412 64.5234C126.848 64.5234 127.298 64.582 127.76 64.6992C128.222 64.8099 128.645 64.9564 129.029 65.1387C129.413 65.3145 129.729 65.513 129.977 65.7344C130.224 65.9557 130.348 66.1706 130.348 66.3789C130.348 66.4831 130.302 66.6003 130.211 66.7305C130.12 66.8542 130.009 66.9746 129.879 67.0918C129.749 67.2025 129.605 67.2969 129.449 67.375C129.299 67.4466 129.166 67.4824 129.049 67.4824C128.893 67.4824 128.717 67.4173 128.521 67.2871C128.333 67.1569 128.121 67.0137 127.887 66.8574C127.659 66.6947 127.408 66.5482 127.135 66.418C126.861 66.2878 126.565 66.2227 126.246 66.2227C126.038 66.2227 125.865 66.2747 125.729 66.3789C125.598 66.4766 125.533 66.6165 125.533 66.7988C125.533 66.9616 125.611 67.1276 125.768 67.2969C125.924 67.4596 126.129 67.6289 126.383 67.8047C126.643 67.9805 126.936 68.166 127.262 68.3613C127.587 68.5566 127.919 68.765 128.258 68.9863C128.603 69.2077 128.938 69.4486 129.264 69.709C129.589 69.9694 129.879 70.2526 130.133 70.5586C130.393 70.8646 130.602 71.1999 130.758 71.5645C130.914 71.9225 130.992 72.3132 130.992 72.7363C130.992 73.1009 130.927 73.4329 130.797 73.7324C130.667 74.0319 130.481 74.2891 130.24 74.5039C129.999 74.7188 129.713 74.8848 129.381 75.002C129.049 75.1191 128.684 75.1777 128.287 75.1777C127.786 75.1777 127.324 75.0996 126.9 74.9434C126.477 74.7936 126.113 74.5853 125.807 74.3184C125.501 74.0514 125.26 73.7324 125.084 73.3613C124.915 72.9902 124.83 72.5833 124.83 72.1406C124.83 71.5677 124.931 71.151 125.133 70.8906C125.341 70.6302 125.667 70.5 126.109 70.5C126.383 70.5 126.601 70.5521 126.764 70.6562C126.926 70.7604 127.008 70.8874 127.008 71.0371C127.008 71.1152 126.995 71.1966 126.969 71.2812C126.943 71.3594 126.913 71.444 126.881 71.5352C126.855 71.6198 126.829 71.7109 126.803 71.8086C126.783 71.9062 126.773 72.0039 126.773 72.1016C126.773 72.2708 126.812 72.4336 126.891 72.5898C126.969 72.7461 127.073 72.8828 127.203 73C127.34 73.1237 127.496 73.2214 127.672 73.293C127.848 73.3646 128.033 73.4004 128.229 73.4004C128.749 73.4004 129.01 73.1855 129.01 72.7559C129.01 72.4173 128.876 72.0983 128.609 71.7988C128.342 71.4928 128.007 71.1966 127.604 70.9102C127.2 70.6172 126.764 70.3242 126.295 70.0312C125.833 69.7383 125.4 69.4323 124.996 69.1133C124.592 68.7943 124.257 68.4557 123.99 68.0977C123.723 67.7331 123.59 67.3392 123.59 66.916C123.59 66.5645 123.661 66.2422 123.805 65.9492C123.954 65.6562 124.156 65.4056 124.41 65.1973C124.664 64.9824 124.96 64.8164 125.299 64.6992C125.644 64.582 126.015 64.5234 126.412 64.5234ZM136.275 63.8789C136.275 63.7617 136.305 63.6543 136.363 63.5566C136.422 63.4525 136.503 63.3646 136.607 63.293C136.712 63.2148 136.832 63.153 136.969 63.1074C137.112 63.0618 137.262 63.0391 137.418 63.0391C137.724 63.0391 137.949 63.0879 138.092 63.1855C138.235 63.2832 138.323 63.4362 138.355 63.6445C138.466 64.5104 138.557 65.3307 138.629 66.1055C138.707 66.8737 138.769 67.6094 138.814 68.3125C138.86 69.0091 138.893 69.6797 138.912 70.3242C138.932 70.9622 138.941 71.5807 138.941 72.1797C138.941 72.5052 138.824 72.7493 138.59 72.9121C138.362 73.0749 138.027 73.1562 137.584 73.1562C137.382 73.1562 137.223 73.1074 137.105 73.0098C136.995 72.9186 136.939 72.7819 136.939 72.5996C136.939 71.4798 136.904 70.4316 136.832 69.4551C136.767 68.472 136.692 67.5996 136.607 66.8379C136.523 66.0762 136.445 65.4414 136.373 64.9336C136.308 64.4193 136.275 64.0677 136.275 63.8789ZM142.604 64.8848C142.551 64.8848 142.451 64.8978 142.301 64.9238C142.158 64.9434 141.988 64.9694 141.793 65.002C141.598 65.0345 141.393 65.0736 141.178 65.1191C140.963 65.1582 140.761 65.194 140.572 65.2266C140.383 65.2591 140.221 65.2884 140.084 65.3145C139.941 65.334 139.846 65.3438 139.801 65.3438C139.365 65.3438 139.146 65.1159 139.146 64.6602C139.146 64.5365 139.16 64.416 139.186 64.2988C139.205 64.1751 139.244 64.0645 139.303 63.9668C139.361 63.8626 139.439 63.7747 139.537 63.7031C139.635 63.6315 139.758 63.5827 139.908 63.5566C140.67 63.4395 141.428 63.3158 142.184 63.1855C142.939 63.0553 143.701 62.9186 144.469 62.7754C144.638 62.7428 144.791 62.7135 144.928 62.6875C145.064 62.6549 145.217 62.6126 145.387 62.5605C145.569 62.5085 145.768 62.4596 145.982 62.4141C146.197 62.362 146.412 62.3164 146.627 62.2773C146.848 62.2383 147.06 62.2057 147.262 62.1797C147.47 62.1536 147.659 62.1406 147.828 62.1406C148.036 62.1406 148.193 62.209 148.297 62.3457C148.408 62.4759 148.463 62.6615 148.463 62.9023C148.463 63.026 148.453 63.1465 148.434 63.2637C148.414 63.3743 148.378 63.4753 148.326 63.5664C148.274 63.6576 148.202 63.7324 148.111 63.791C148.02 63.8496 147.903 63.8854 147.76 63.8984C147.389 63.9505 146.992 64.0156 146.568 64.0938C146.145 64.1654 145.777 64.2467 145.465 64.3379C145.335 64.377 145.237 64.4421 145.172 64.5332C145.107 64.6178 145.064 64.7253 145.045 64.8555C145.025 64.9792 145.012 65.1061 145.006 65.2363C145.006 65.36 145.006 65.4805 145.006 65.5977C145.006 65.8711 145.016 66.1445 145.035 66.418C145.061 66.6914 145.084 66.9648 145.104 67.2383C145.162 68.1758 145.25 69.1035 145.367 70.0215C145.491 70.9395 145.624 71.8672 145.768 72.8047C145.781 72.8372 145.787 72.8698 145.787 72.9023C145.787 72.9349 145.787 72.9674 145.787 73C145.787 73.3581 145.585 73.612 145.182 73.7617L144.742 73.8984C144.625 73.9375 144.511 73.957 144.4 73.957C144.231 73.957 144.094 73.9017 143.99 73.791C143.886 73.6868 143.818 73.5306 143.785 73.3223C143.603 72.2025 143.443 71.0892 143.307 69.9824C143.17 68.8691 143.082 67.7493 143.043 66.623C143.03 66.4408 143.02 66.2422 143.014 66.0273C143.007 65.8125 143.004 65.5911 143.004 65.3633C143.004 65.0443 142.87 64.8848 142.604 64.8848ZM158.062 67.6777C157.984 67.6777 157.916 67.7396 157.857 67.8633C157.61 68.3451 157.346 68.7812 157.066 69.1719C156.793 69.5625 156.516 69.8945 156.236 70.168C155.956 70.4414 155.68 70.653 155.406 70.8027C155.133 70.946 154.876 71.0176 154.635 71.0176C154.4 71.0176 154.182 70.9688 153.98 70.8711C153.785 70.7669 153.57 70.5749 153.336 70.2949C153.108 70.015 152.844 69.6276 152.545 69.1328C152.252 68.638 151.891 67.9935 151.461 67.1992C151.389 67.069 151.314 66.9746 151.236 66.916C151.165 66.8509 151.1 66.8184 151.041 66.8184C150.956 66.8184 150.878 66.9095 150.807 67.0918C150.735 67.2676 150.673 67.5182 150.621 67.8438C150.569 68.1628 150.527 68.5501 150.494 69.0059C150.468 69.4551 150.455 69.9531 150.455 70.5C150.455 70.8255 150.471 71.151 150.504 71.4766C150.543 71.8021 150.562 72.1374 150.562 72.4824C150.562 72.5996 150.53 72.7103 150.465 72.8145C150.4 72.9121 150.312 72.9967 150.201 73.0684C150.097 73.1465 149.97 73.2083 149.82 73.2539C149.677 73.2995 149.524 73.3223 149.361 73.3223C149.036 73.3223 148.801 73.127 148.658 72.7363C148.515 72.3457 148.443 71.7207 148.443 70.8613C148.443 69.7741 148.502 68.7878 148.619 67.9023C148.743 67.0104 148.915 66.2487 149.137 65.6172C149.365 64.9792 149.632 64.4876 149.938 64.1426C150.25 63.791 150.598 63.6152 150.982 63.6152C151.321 63.6152 151.643 63.8105 151.949 64.2012C152.262 64.5853 152.597 65.2103 152.955 66.0762C153.098 66.4277 153.251 66.7565 153.414 67.0625C153.583 67.3685 153.749 67.6354 153.912 67.8633C154.081 68.0846 154.244 68.2604 154.4 68.3906C154.557 68.5143 154.697 68.5762 154.82 68.5762C154.944 68.5762 155.061 68.5501 155.172 68.498C155.289 68.4395 155.419 68.319 155.562 68.1367C155.712 67.9479 155.885 67.6745 156.08 67.3164C156.282 66.9583 156.529 66.4798 156.822 65.8809C156.979 65.5684 157.118 65.3079 157.242 65.0996C157.366 64.8913 157.49 64.7253 157.613 64.6016C157.737 64.4714 157.867 64.3802 158.004 64.3281C158.141 64.2695 158.294 64.2402 158.463 64.2402C158.665 64.2402 158.863 64.3477 159.059 64.5625C159.254 64.7773 159.443 65.0638 159.625 65.4219C159.814 65.7799 159.996 66.1966 160.172 66.6719C160.348 67.1471 160.517 67.6452 160.68 68.166C160.849 68.6868 161.012 69.2174 161.168 69.7578C161.331 70.2917 161.487 70.7995 161.637 71.2812C161.676 71.4245 161.702 71.5254 161.715 71.584C161.734 71.6361 161.744 71.7012 161.744 71.7793C161.744 71.89 161.708 72.0007 161.637 72.1113C161.572 72.2155 161.484 72.3099 161.373 72.3945C161.262 72.4792 161.135 72.5475 160.992 72.5996C160.855 72.6517 160.719 72.6777 160.582 72.6777C160.4 72.6777 160.257 72.6582 160.152 72.6191C160.055 72.5736 159.977 72.4954 159.918 72.3848C159.885 72.3262 159.83 72.1699 159.752 71.916C159.674 71.6621 159.579 71.3626 159.469 71.0176C159.365 70.666 159.247 70.2949 159.117 69.9043C158.993 69.5137 158.867 69.1556 158.736 68.8301C158.613 68.498 158.492 68.2246 158.375 68.0098C158.258 67.7884 158.154 67.6777 158.062 67.6777ZM167.086 74.2207C166.376 74.2207 165.722 74.1003 165.123 73.8594C164.531 73.6185 164.02 73.2832 163.59 72.8535C163.16 72.4173 162.825 71.8997 162.584 71.3008C162.343 70.7018 162.223 70.041 162.223 69.3184C162.223 68.9277 162.255 68.5534 162.32 68.1953C162.392 67.8307 162.486 67.4922 162.604 67.1797C162.656 67.056 162.682 66.9681 162.682 66.916C162.682 66.8509 162.665 66.7891 162.633 66.7305C162.6 66.6719 162.564 66.61 162.525 66.5449C162.486 66.4798 162.451 66.4115 162.418 66.3398C162.385 66.2682 162.369 66.1868 162.369 66.0957C162.369 65.8223 162.525 65.5553 162.838 65.2949C163.15 65.028 163.564 64.7936 164.078 64.5918C164.592 64.3835 165.175 64.2174 165.826 64.0938C166.477 63.9635 167.145 63.8984 167.828 63.8984C168.668 63.8984 169.423 64.0059 170.094 64.2207C170.771 64.4355 171.344 64.7448 171.812 65.1484C172.288 65.5456 172.652 66.0306 172.906 66.6035C173.16 67.1764 173.287 67.821 173.287 68.5371C173.287 69.3379 173.128 70.0866 172.809 70.7832C172.49 71.4733 172.05 72.0723 171.49 72.5801C170.937 73.0879 170.283 73.4883 169.527 73.7812C168.772 74.0742 167.958 74.2207 167.086 74.2207ZM171.324 68.918C171.324 68.4102 171.236 67.9544 171.061 67.5508C170.885 67.1471 170.631 66.8086 170.299 66.5352C169.967 66.2552 169.557 66.0436 169.068 65.9004C168.587 65.7507 168.04 65.6758 167.428 65.6758C166.354 65.6758 165.543 65.9492 164.996 66.4961C164.456 67.0365 164.186 67.8438 164.186 68.918C164.186 69.4388 164.267 69.9173 164.43 70.3535C164.592 70.7832 164.82 71.1543 165.113 71.4668C165.406 71.7728 165.755 72.0137 166.158 72.1895C166.568 72.3587 167.018 72.4434 167.506 72.4434C168.066 72.4434 168.58 72.3587 169.049 72.1895C169.518 72.0137 169.918 71.7695 170.25 71.457C170.589 71.1445 170.852 70.7734 171.041 70.3438C171.23 69.9076 171.324 69.4323 171.324 68.918ZM183.316 63.7617C183.316 64.0156 183.232 64.2533 183.062 64.4746C182.9 64.696 182.691 64.9108 182.438 65.1191C182.19 65.3275 181.92 65.5293 181.627 65.7246C181.334 65.9199 181.061 66.1185 180.807 66.3203C180.559 66.5221 180.351 66.7272 180.182 66.9355C180.019 67.1439 179.938 67.3652 179.938 67.5996C179.938 67.7949 180.074 67.9837 180.348 68.166C180.621 68.3483 181.015 68.5306 181.529 68.7129C182.044 68.8952 182.665 69.084 183.395 69.2793C184.124 69.4681 184.944 69.6699 185.855 69.8848C186.311 70.0085 186.539 70.2396 186.539 70.5781C186.539 70.7083 186.507 70.8353 186.441 70.959C186.383 71.0827 186.301 71.1934 186.197 71.291C186.093 71.3822 185.973 71.457 185.836 71.5156C185.706 71.5742 185.572 71.6035 185.436 71.6035C185.11 71.6035 184.739 71.5547 184.322 71.457C183.912 71.3594 183.486 71.2389 183.043 71.0957C182.6 70.9525 182.158 70.7962 181.715 70.627C181.272 70.4512 180.855 70.2917 180.465 70.1484C180.081 70.0052 179.739 69.8848 179.439 69.7871C179.146 69.6895 178.925 69.6406 178.775 69.6406C178.658 69.6406 178.544 69.696 178.434 69.8066C178.329 69.9108 178.232 70.0573 178.141 70.2461C178.056 70.4349 177.984 70.6595 177.926 70.9199C177.867 71.1738 177.825 71.4538 177.799 71.7598C177.766 72.1048 177.643 72.362 177.428 72.5312C177.219 72.694 176.93 72.7754 176.559 72.7754C176.174 72.7754 175.953 72.5964 175.895 72.2383C175.797 71.6914 175.676 71.1348 175.533 70.5684C175.396 70.002 175.243 69.4355 175.074 68.8691C174.911 68.3027 174.732 67.7428 174.537 67.1895C174.348 66.6361 174.15 66.1055 173.941 65.5977C173.889 65.487 173.85 65.3861 173.824 65.2949C173.805 65.1973 173.795 65.0996 173.795 65.002C173.795 64.9173 173.821 64.8392 173.873 64.7676C173.925 64.6895 173.997 64.6211 174.088 64.5625C174.179 64.5039 174.283 64.4583 174.4 64.4258C174.524 64.3932 174.651 64.377 174.781 64.377C175.048 64.377 175.26 64.4323 175.416 64.543C175.572 64.6536 175.732 64.8197 175.895 65.041C175.973 65.1452 176.048 65.2852 176.119 65.4609C176.191 65.6302 176.259 65.8125 176.324 66.0078C176.389 66.2031 176.454 66.4017 176.52 66.6035C176.585 66.7988 176.646 66.9779 176.705 67.1406C176.77 67.2969 176.832 67.4271 176.891 67.5312C176.956 67.6289 177.018 67.6777 177.076 67.6777C177.128 67.6777 177.171 67.6549 177.203 67.6094C177.242 67.5638 177.288 67.4954 177.34 67.4043C177.678 66.7012 178.049 66.0599 178.453 65.4805C178.857 64.8945 179.27 64.3965 179.693 63.9863C180.117 63.5697 180.54 63.2474 180.963 63.0195C181.393 62.7917 181.803 62.6777 182.193 62.6777C182.35 62.6777 182.496 62.707 182.633 62.7656C182.77 62.8177 182.887 62.8926 182.984 62.9902C183.089 63.0879 183.17 63.2051 183.229 63.3418C183.287 63.472 183.316 63.612 183.316 63.7617ZM194.332 63.7617C194.332 64.0156 194.247 64.2533 194.078 64.4746C193.915 64.696 193.707 64.9108 193.453 65.1191C193.206 65.3275 192.936 65.5293 192.643 65.7246C192.35 65.9199 192.076 66.1185 191.822 66.3203C191.575 66.5221 191.367 66.7272 191.197 66.9355C191.035 67.1439 190.953 67.3652 190.953 67.5996C190.953 67.7949 191.09 67.9837 191.363 68.166C191.637 68.3483 192.031 68.5306 192.545 68.7129C193.059 68.8952 193.681 69.084 194.41 69.2793C195.139 69.4681 195.96 69.6699 196.871 69.8848C197.327 70.0085 197.555 70.2396 197.555 70.5781C197.555 70.7083 197.522 70.8353 197.457 70.959C197.398 71.0827 197.317 71.1934 197.213 71.291C197.109 71.3822 196.988 71.457 196.852 71.5156C196.721 71.5742 196.588 71.6035 196.451 71.6035C196.126 71.6035 195.755 71.5547 195.338 71.457C194.928 71.3594 194.501 71.2389 194.059 71.0957C193.616 70.9525 193.173 70.7962 192.73 70.627C192.288 70.4512 191.871 70.2917 191.48 70.1484C191.096 70.0052 190.755 69.8848 190.455 69.7871C190.162 69.6895 189.941 69.6406 189.791 69.6406C189.674 69.6406 189.56 69.696 189.449 69.8066C189.345 69.9108 189.247 70.0573 189.156 70.2461C189.072 70.4349 189 70.6595 188.941 70.9199C188.883 71.1738 188.84 71.4538 188.814 71.7598C188.782 72.1048 188.658 72.362 188.443 72.5312C188.235 72.694 187.945 72.7754 187.574 72.7754C187.19 72.7754 186.969 72.5964 186.91 72.2383C186.812 71.6914 186.692 71.1348 186.549 70.5684C186.412 70.002 186.259 69.4355 186.09 68.8691C185.927 68.3027 185.748 67.7428 185.553 67.1895C185.364 66.6361 185.165 66.1055 184.957 65.5977C184.905 65.487 184.866 65.3861 184.84 65.2949C184.82 65.1973 184.811 65.0996 184.811 65.002C184.811 64.9173 184.837 64.8392 184.889 64.7676C184.941 64.6895 185.012 64.6211 185.104 64.5625C185.195 64.5039 185.299 64.4583 185.416 64.4258C185.54 64.3932 185.667 64.377 185.797 64.377C186.064 64.377 186.275 64.4323 186.432 64.543C186.588 64.6536 186.747 64.8197 186.91 65.041C186.988 65.1452 187.063 65.2852 187.135 65.4609C187.206 65.6302 187.275 65.8125 187.34 66.0078C187.405 66.2031 187.47 66.4017 187.535 66.6035C187.6 66.7988 187.662 66.9779 187.721 67.1406C187.786 67.2969 187.848 67.4271 187.906 67.5312C187.971 67.6289 188.033 67.6777 188.092 67.6777C188.144 67.6777 188.186 67.6549 188.219 67.6094C188.258 67.5638 188.303 67.4954 188.355 67.4043C188.694 66.7012 189.065 66.0599 189.469 65.4805C189.872 64.8945 190.286 64.3965 190.709 63.9863C191.132 63.5697 191.555 63.2474 191.979 63.0195C192.408 62.7917 192.818 62.6777 193.209 62.6777C193.365 62.6777 193.512 62.707 193.648 62.7656C193.785 62.8177 193.902 62.8926 194 62.9902C194.104 63.0879 194.186 63.2051 194.244 63.3418C194.303 63.472 194.332 63.612 194.332 63.7617ZM196.363 71.0566C196.253 71.0566 196.168 71.0013 196.109 70.8906C196.057 70.7799 196.031 70.6237 196.031 70.4219C196.031 70.3893 196.031 70.3535 196.031 70.3145C196.031 70.2689 196.038 70.1842 196.051 70.0605C196.07 69.5918 196.301 69.3184 196.744 69.2402L196.969 69.2207C197.118 69.2012 197.236 69.1556 197.32 69.084C197.405 69.0059 197.467 68.8984 197.506 68.7617C197.617 68.3906 197.727 68.0163 197.838 67.6387C197.949 67.2611 198.066 66.8867 198.189 66.5156C198.255 66.3073 198.32 66.0859 198.385 65.8516C198.456 65.6107 198.531 65.373 198.609 65.1387C198.694 64.9043 198.788 64.6732 198.893 64.4453C199.003 64.2174 199.127 64.0091 199.264 63.8203C199.322 63.7422 199.404 63.6608 199.508 63.5762C199.612 63.4915 199.729 63.4167 199.859 63.3516C199.996 63.2799 200.139 63.2246 200.289 63.1855C200.445 63.14 200.598 63.1172 200.748 63.1172C200.943 63.1172 201.135 63.179 201.324 63.3027C201.578 63.4785 201.829 63.6901 202.076 63.9375C202.324 64.1849 202.6 64.5007 202.906 64.8848C203.212 65.2689 203.567 65.7344 203.971 66.2812C204.374 66.8216 204.859 67.4759 205.426 68.2441C205.51 68.3418 205.598 68.4167 205.689 68.4688C205.787 68.5143 205.901 68.5371 206.031 68.5371H206.588C206.816 68.5371 206.992 68.5924 207.115 68.7031C207.245 68.8073 207.311 68.9538 207.311 69.1426C207.311 69.1816 207.307 69.2272 207.301 69.2793C207.301 69.3314 207.291 69.3835 207.271 69.4355L207.086 69.9824C207.073 70.0345 207.063 70.0801 207.057 70.1191C207.05 70.1582 207.047 70.1973 207.047 70.2363C207.047 70.373 207.092 70.513 207.184 70.6562L208.229 72.082C208.346 72.2578 208.404 72.4238 208.404 72.5801C208.404 72.8145 208.271 73.0195 208.004 73.1953L207.633 73.459C207.542 73.5176 207.454 73.5632 207.369 73.5957C207.291 73.6283 207.21 73.6445 207.125 73.6445C207.008 73.6445 206.897 73.6087 206.793 73.5371C206.695 73.472 206.601 73.3809 206.51 73.2637C206.197 72.821 205.882 72.3848 205.562 71.9551C205.25 71.5254 204.931 71.099 204.605 70.6758C204.456 70.4674 204.257 70.3633 204.01 70.3633C203.215 70.3958 202.428 70.4414 201.646 70.5C200.872 70.5521 200.094 70.6172 199.312 70.6953C199.033 70.7214 198.857 70.8711 198.785 71.1445L198.346 72.7559C198.229 73.1855 197.968 73.4004 197.564 73.4004H197.408L197.105 73.3613C196.884 73.3418 196.715 73.2734 196.598 73.1562C196.487 73.0391 196.432 72.8861 196.432 72.6973C196.432 72.6582 196.435 72.6159 196.441 72.5703C196.448 72.5247 196.458 72.4759 196.471 72.4238C196.503 72.2936 196.536 72.1602 196.568 72.0234C196.607 71.8867 196.646 71.7533 196.686 71.623C196.699 71.571 196.708 71.5254 196.715 71.4863C196.721 71.4408 196.725 71.3984 196.725 71.3594C196.725 71.1576 196.646 71.0566 196.49 71.0566H196.363ZM201.012 65.9004C200.947 65.8418 200.888 65.793 200.836 65.7539C200.784 65.7148 200.729 65.6953 200.67 65.6953C200.507 65.6953 200.393 65.8092 200.328 66.0371C200.198 66.4212 200.071 66.8021 199.947 67.1797C199.83 67.5508 199.71 67.9316 199.586 68.3223C199.573 68.3548 199.566 68.3841 199.566 68.4102C199.566 68.4362 199.566 68.4655 199.566 68.498C199.566 68.7389 199.693 68.8594 199.947 68.8594H200.045C200.436 68.8073 200.826 68.7682 201.217 68.7422C201.607 68.7096 201.998 68.6836 202.389 68.6641C202.519 68.651 202.62 68.6185 202.691 68.5664C202.77 68.5078 202.809 68.4329 202.809 68.3418C202.809 68.2572 202.77 68.1562 202.691 68.0391C202.418 67.6745 202.141 67.3164 201.861 66.9648C201.588 66.6068 201.305 66.252 201.012 65.9004Z" fill="white"/>
        </g>
    </g>
    <defs>
        <filter id="filter0_d_161_846" x="81.9297" y="15.3906" width="96.1055" height="34.4062" filterUnits="userSpaceOnUse" color-interpolation-filters="sRGB">
            <feFlood flood-opacity="0" result="BackgroundImageFix"/>
            <feColorMatrix in="SourceAlpha" type="matrix" values="0 0 0 0 0 0 0 0 0 0 0 0 0 0 0 0 0 0 127 0" result="hardAlpha"/>
            <feOffset dy="4"/>
            <feGaussianBlur stdDeviation="2"/>
            <feComposite in2="hardAlpha" operator="out"/>
            <feColorMatrix type="matrix" values="0 0 0 0 0 0 0 0 0 0 0 0 0 0 0 0 0 0 0.25 0"/>
            <feBlend mode="normal" in2="BackgroundImageFix" result="effect1_dropShadow_161_846"/>
            <feBlend mode="normal" in="SourceGraphic" in2="effect1_dropShadow_161_846" result="shape"/>
        </filter>
        <filter id="filter1_d_161_846" x="37.1191" y="60.998" width="175.285" height="26.6035" filterUnits="userSpaceOnUse" color-interpolation-filters="sRGB">
            <feFlood flood-opacity="0" result="BackgroundImageFix"/>
            <feColorMatrix in="SourceAlpha" type="matrix" values="0 0 0 0 0 0 0 0 0 0 0 0 0 0 0 0 0 0 127 0" result="hardAlpha"/>
            <feOffset dy="4"/>
            <feGaussianBlur stdDeviation="2"/>
            <feComposite in2="hardAlpha" operator="out"/>
            <feColorMatrix type="matrix" values="0 0 0 0 0 0 0 0 0 0 0 0 0 0 0 0 0 0 0.25 0"/>
            <feBlend mode="normal" in2="BackgroundImageFix" result="effect1_dropShadow_161_846"/>
            <feBlend mode="normal" in="SourceGraphic" in2="effect1_dropShadow_161_846" result="shape"/>
        </filter>
        <clipPath id="clip0_161_846">
            <rect width="248" height="147" fill="white"/>
        </clipPath>
    </defs>
</svg>