<svg width="32" height="32" viewBox="0 0 32 32" fill="none" xmlns="http://www.w3.org/2000/svg">
<path d="M20.7191 13.1215C20.7191 11.6515 19.5356 10.4599 18.0757 10.4599C17.2935 10.4599 16.5985 10.8307 16 11.548C15.4015 10.8307 14.7065 10.4599 13.9243 10.4599C12.4644 10.4599 11.2809 11.6515 11.2809 13.1215C11.2809 14.6059 11.8716 15.3502 14.3771 17.3123L15.5171 18.2051C15.8011 18.4275 16.1989 18.4275 16.4829 18.2051L17.6229 17.3123C20.1284 15.3502 20.7191 14.6059 20.7191 13.1215Z" fill="#007AFF"/>
<path fill-rule="evenodd" clip-rule="evenodd" d="M17.3333 0.212621C16.4667 -0.0708737 15.5333 -0.0708737 14.6667 0.212621C14.0748 0.40626 13.6009 0.740119 13.1804 1.09952C12.7855 1.43703 12.3451 1.88053 11.8474 2.38165L2.05796 12.2383C1.53484 12.7642 1.09337 13.208 0.768397 13.742C0.482552 14.2116 0.271906 14.7237 0.144194 15.2593C-0.000997344 15.8682 -0.000507873 16.4963 7.21485e-05 17.2406L0.000144477 26.087C0.000110938 26.7957 8.12558e-05 27.4229 0.0422589 27.9427C0.0871728 28.4962 0.187864 29.0697 0.470406 29.628C0.884058 30.4454 1.5441 31.11 2.35594 31.5265C2.91046 31.811 3.48008 31.9124 4.0298 31.9576C4.54603 32.0001 5.16892 32 5.87275 32H12.1766C13.196 32 14.0225 31.1679 14.0225 30.1414V26.5697C14.0225 25.4701 14.9079 24.5786 16 24.5786C17.0921 24.5786 17.9775 25.4701 17.9775 26.5697V30.1414C17.9775 31.1679 18.804 32 19.8234 32H26.1273C26.8311 32 27.454 32.0001 27.9702 31.9576C28.5199 31.9124 29.0895 31.811 29.6441 31.5265C30.4559 31.11 31.1159 30.4454 31.5296 29.628C31.8121 29.0697 31.9128 28.4962 31.9577 27.9427C31.9999 27.4229 31.9999 26.7957 31.9999 26.087L31.9999 17.2406C32.0005 16.4963 32.001 15.8682 31.8558 15.2593C31.7281 14.7237 31.5174 14.2116 31.2316 13.742C30.9066 13.208 30.4652 12.7642 29.942 12.2383L20.1526 2.38167C19.6549 1.88055 19.2145 1.43703 18.8196 1.09952C18.3991 0.740119 17.9252 0.40626 17.3333 0.212621ZM15.6667 3.31132C15.8833 3.24044 16.1167 3.24044 16.3333 3.31132C16.3571 3.31911 16.458 3.35478 16.7254 3.58335C17.0073 3.82427 17.354 4.17157 17.9068 4.72819L27.5529 14.4406C28.2292 15.1215 28.3735 15.2816 28.4725 15.4443C28.5809 15.6225 28.6608 15.8167 28.7093 16.0199C28.7535 16.2054 28.7639 16.4214 28.7639 17.3844V26.0267C28.7639 26.8139 28.7627 27.3063 28.7326 27.6773C28.704 28.0293 28.6577 28.1264 28.6464 28.1488C28.5429 28.3532 28.3779 28.5193 28.175 28.6235C28.1527 28.6349 28.0563 28.6815 27.7067 28.7103C27.3382 28.7406 26.8491 28.7418 26.0673 28.7418H21.2134V26.5697C21.2134 23.6706 18.8793 21.3205 16 21.3205C13.1207 21.3205 10.7866 23.6706 10.7866 26.5697V28.7418H5.93268C5.15086 28.7418 4.6618 28.7406 4.29331 28.7103C3.9437 28.6815 3.84734 28.6349 3.82502 28.6235C3.62206 28.5193 3.45705 28.3532 3.35364 28.1488C3.34227 28.1264 3.296 28.0293 3.26744 27.6773C3.23733 27.3063 3.23607 26.8139 3.23607 26.0267V17.3844C3.23607 16.4214 3.24647 16.2054 3.29071 16.0199C3.33915 15.8167 3.41905 15.6225 3.52748 15.4443C3.6265 15.2816 3.77083 15.1215 4.44712 14.4406L14.0932 4.72819C14.646 4.17157 14.9927 3.82427 15.2746 3.58335C15.542 3.35478 15.6429 3.31911 15.6667 3.31132Z" fill="#007AFF"/>
</svg>
