<svg width="24" height="24" viewBox="0 0 24 24" fill="none" xmlns="http://www.w3.org/2000/svg">
<path d="M8 5.9C8 5.40294 8.40294 5 8.9 5H20.1C20.5971 5 21 5.40294 21 5.9C21 6.39706 20.5971 6.8 20.1 6.8H8.9C8.40294 6.8 8 6.39706 8 5.9Z" fill="#2688EB"/>
<path d="M8 12C8 11.5029 8.40294 11.1 8.9 11.1H20.1C20.5971 11.1 21 11.5029 21 12C21 12.497 20.5971 12.9 20.1 12.9H8.9C8.40294 12.9 8 12.497 8 12Z" fill="#2688EB"/>
<path d="M8 18.1C8 17.6029 8.40294 17.2 8.9 17.2H20.1C20.5971 17.2 21 17.6029 21 18.1C21 18.597 20.5971 19 20.1 19H8.9C8.40294 19 8 18.597 8 18.1Z" fill="#2688EB"/>
<path d="M6 12C6 12.8284 5.32843 13.5 4.5 13.5C3.67157 13.5 3 12.8284 3 12C3 11.1716 3.67157 10.5 4.5 10.5C5.32843 10.5 6 11.1716 6 12Z" fill="#2688EB"/>
<path d="M6 18C6 18.8284 5.32843 19.5 4.5 19.5C3.67157 19.5 3 18.8284 3 18C3 17.1716 3.67157 16.5 4.5 16.5C5.32843 16.5 6 17.1716 6 18Z" fill="#2688EB"/>
<path d="M6 6C6 6.82843 5.32843 7.5 4.5 7.5C3.67157 7.5 3 6.82843 3 6C3 5.17157 3.67157 4.5 4.5 4.5C5.32843 4.5 6 5.17157 6 6Z" fill="#2688EB"/>
</svg>
