<svg width="353" height="318" viewBox="0 0 353 318" fill="none" xmlns="http://www.w3.org/2000/svg">
    <g filter="url(#filter0_d_283_1111)">
        <path d="M170.663 117.357L175.565 128.764L179.588 117.357L181.503 117.357L176.424 131C176.216 131.547 175.995 132.016 175.76 132.406C175.532 132.803 175.282 133.126 175.008 133.373C174.735 133.62 174.435 133.803 174.11 133.92C173.784 134.037 173.423 134.096 173.026 134.096C172.674 134.096 172.355 134.05 172.069 133.959C171.782 133.874 171.529 133.76 171.307 133.617L171.307 131.859C171.529 132.087 171.779 132.25 172.059 132.348C172.346 132.452 172.694 132.504 173.104 132.504C173.241 132.504 173.394 132.468 173.563 132.396C173.739 132.331 173.905 132.234 174.061 132.104C174.217 131.973 174.354 131.814 174.471 131.625C174.588 131.443 174.66 131.234 174.686 131L168.7 117.357L170.663 117.357ZM190.946 122.016L190.946 131L189.169 131L189.169 123.617L184.764 123.617L184.764 131L182.987 131L182.987 122.016L190.946 122.016ZM200.253 130.658C200.103 130.73 199.924 130.798 199.715 130.863C199.507 130.922 199.282 130.974 199.042 131.02C198.801 131.072 198.553 131.111 198.299 131.137C198.052 131.163 197.811 131.176 197.577 131.176C196.906 131.176 196.291 131.065 195.731 130.844C195.171 130.622 194.689 130.313 194.286 129.916C193.889 129.519 193.576 129.047 193.348 128.5C193.127 127.947 193.016 127.341 193.016 126.684C193.016 125.941 193.12 125.274 193.329 124.682C193.537 124.083 193.833 123.575 194.217 123.158C194.601 122.735 195.067 122.409 195.614 122.182C196.161 121.954 196.776 121.84 197.46 121.84C197.72 121.84 197.961 121.856 198.182 121.889C198.404 121.915 198.615 121.954 198.817 122.006C199.025 122.058 199.23 122.123 199.432 122.201C199.634 122.279 199.842 122.367 200.057 122.465L200.057 124.359C199.803 124.19 199.566 124.05 199.344 123.939C199.129 123.822 198.921 123.731 198.719 123.666C198.524 123.594 198.332 123.546 198.143 123.52C197.961 123.493 197.772 123.48 197.577 123.48C197.173 123.48 196.802 123.555 196.463 123.705C196.125 123.848 195.835 124.053 195.594 124.32C195.353 124.587 195.165 124.906 195.028 125.277C194.898 125.648 194.833 126.062 194.833 126.518C194.833 126.986 194.904 127.406 195.047 127.777C195.191 128.142 195.396 128.451 195.663 128.705C195.93 128.959 196.249 129.154 196.62 129.291C196.997 129.428 197.417 129.496 197.879 129.496C198.257 129.496 198.635 129.447 199.012 129.35C199.39 129.252 199.803 129.102 200.253 128.9L200.253 130.658ZM203.143 128.822C203.475 128.822 203.758 128.936 203.993 129.164C204.227 129.392 204.344 129.672 204.344 130.004C204.344 130.329 204.227 130.603 203.993 130.824C203.765 131.046 203.482 131.156 203.143 131.156C202.811 131.156 202.531 131.046 202.303 130.824C202.075 130.603 201.961 130.329 201.961 130.004C201.961 129.672 202.075 129.392 202.303 129.164C202.531 128.936 202.811 128.822 203.143 128.822ZM207.538 128.822C207.87 128.822 208.153 128.936 208.387 129.164C208.622 129.392 208.739 129.672 208.739 130.004C208.739 130.329 208.622 130.603 208.387 130.824C208.159 131.046 207.876 131.156 207.538 131.156C207.206 131.156 206.926 131.046 206.698 130.824C206.47 130.603 206.356 130.329 206.356 130.004C206.356 129.672 206.47 129.392 206.698 129.164C206.926 128.936 207.206 128.822 207.538 128.822ZM211.932 128.822C212.264 128.822 212.547 128.936 212.782 129.164C213.016 129.392 213.133 129.672 213.133 130.004C213.133 130.329 213.016 130.603 212.782 130.824C212.554 131.046 212.271 131.156 211.932 131.156C211.6 131.156 211.32 131.046 211.092 130.824C210.864 130.603 210.751 130.329 210.751 130.004C210.751 129.672 210.864 129.392 211.092 129.164C211.32 128.936 211.6 128.822 211.932 128.822Z" fill="white"/>
    </g>
    <g filter="url(#filter1_d_283_1111)">
        <path d="M89.4023 151.357L89.4023 165L87.4492 165L87.4492 153.115L79.8027 153.115L79.8027 165L77.8496 165L77.8496 151.357L89.4023 151.357ZM95.3203 156.016C96.9544 156.016 98.2044 156.406 99.0703 157.187C99.9427 157.969 100.379 159.098 100.379 160.576C100.379 161.253 100.265 161.875 100.037 162.441C99.8158 163.001 99.5 163.486 99.0898 163.896C98.6862 164.3 98.2044 164.616 97.6445 164.844C97.0911 165.065 96.4824 165.176 95.8184 165.176C95.5254 165.176 95.2389 165.143 94.959 165.078C94.679 165.02 94.3633 164.919 94.0117 164.775L94.0117 169.6L92.2344 169.6L92.2344 156.016L95.3203 156.016ZM94.0117 157.617L94.0117 163.184C94.5651 163.451 95.125 163.584 95.6914 163.584C96.1081 163.584 96.4889 163.509 96.834 163.359C97.1855 163.203 97.4883 162.992 97.7422 162.725C97.9961 162.458 98.1947 162.139 98.3379 161.768C98.4811 161.396 98.5527 160.993 98.5527 160.557C98.5527 160.094 98.4779 159.681 98.3281 159.316C98.1784 158.952 97.9701 158.646 97.7031 158.398C97.4427 158.145 97.1335 157.952 96.7754 157.822C96.4238 157.686 96.043 157.617 95.6328 157.617L94.0117 157.617ZM108.572 159.238L103.396 165.176L102.391 165.176L102.391 156.016L104.168 156.016L104.168 162.139L109.393 156.016L110.35 156.016L110.35 165L108.572 165L108.572 159.238ZM120.857 156.016L120.857 165L119.08 165L119.08 161.162L114.676 161.162L114.676 165L112.898 165L112.898 156.016L114.676 156.016L114.676 159.561L119.08 159.561L119.08 156.016L120.857 156.016ZM127.566 155.84C128.27 155.84 128.917 155.954 129.51 156.182C130.109 156.41 130.623 156.729 131.053 157.139C131.489 157.542 131.827 158.024 132.068 158.584C132.309 159.144 132.43 159.756 132.43 160.42C132.43 161.13 132.309 161.777 132.068 162.363C131.834 162.949 131.502 163.451 131.072 163.867C130.649 164.284 130.138 164.606 129.539 164.834C128.947 165.062 128.289 165.176 127.566 165.176C126.876 165.176 126.242 165.059 125.662 164.824C125.083 164.583 124.581 164.255 124.158 163.838C123.742 163.415 123.416 162.913 123.182 162.334C122.947 161.748 122.83 161.11 122.83 160.42C122.83 159.775 122.951 159.176 123.191 158.623C123.432 158.063 123.764 157.578 124.187 157.168C124.617 156.751 125.118 156.426 125.691 156.191C126.271 155.957 126.896 155.84 127.566 155.84ZM127.547 157.441C127.13 157.441 126.743 157.516 126.385 157.666C126.033 157.816 125.727 158.024 125.467 158.291C125.206 158.551 125.005 158.864 124.861 159.229C124.718 159.593 124.646 159.99 124.646 160.42C124.646 160.895 124.715 161.328 124.852 161.719C124.995 162.109 125.193 162.445 125.447 162.725C125.708 162.998 126.014 163.21 126.365 163.359C126.723 163.509 127.117 163.584 127.547 163.584C128.016 163.584 128.439 163.512 128.816 163.369C129.194 163.219 129.513 163.011 129.773 162.744C130.04 162.471 130.245 162.142 130.389 161.758C130.532 161.367 130.604 160.928 130.604 160.439C130.604 160.003 130.525 159.603 130.369 159.238C130.219 158.874 130.008 158.558 129.734 158.291C129.467 158.024 129.145 157.816 128.768 157.666C128.396 157.516 127.99 157.441 127.547 157.441ZM141.199 164.658C141.049 164.73 140.87 164.798 140.662 164.863C140.454 164.922 140.229 164.974 139.988 165.02C139.747 165.072 139.5 165.111 139.246 165.137C138.999 165.163 138.758 165.176 138.523 165.176C137.853 165.176 137.238 165.065 136.678 164.844C136.118 164.622 135.636 164.313 135.232 163.916C134.835 163.519 134.523 163.047 134.295 162.5C134.074 161.947 133.963 161.341 133.963 160.684C133.963 159.941 134.067 159.274 134.275 158.682C134.484 158.083 134.78 157.575 135.164 157.158C135.548 156.735 136.014 156.41 136.561 156.182C137.107 155.954 137.723 155.84 138.406 155.84C138.667 155.84 138.908 155.856 139.129 155.889C139.35 155.915 139.562 155.954 139.764 156.006C139.972 156.058 140.177 156.123 140.379 156.201C140.581 156.279 140.789 156.367 141.004 156.465L141.004 158.359C140.75 158.19 140.512 158.05 140.291 157.939C140.076 157.822 139.868 157.731 139.666 157.666C139.471 157.594 139.279 157.546 139.09 157.52C138.908 157.493 138.719 157.48 138.523 157.48C138.12 157.48 137.749 157.555 137.41 157.705C137.072 157.848 136.782 158.053 136.541 158.32C136.3 158.587 136.111 158.906 135.975 159.277C135.844 159.648 135.779 160.062 135.779 160.518C135.779 160.986 135.851 161.406 135.994 161.777C136.137 162.142 136.342 162.451 136.609 162.705C136.876 162.959 137.195 163.154 137.566 163.291C137.944 163.428 138.364 163.496 138.826 163.496C139.204 163.496 139.581 163.447 139.959 163.35C140.337 163.252 140.75 163.102 141.199 162.9L141.199 164.658ZM149.393 159.238L144.217 165.176L143.211 165.176L143.211 156.016L144.988 156.016L144.988 162.139L150.213 156.016L151.17 156.016L151.17 165L149.393 165L149.393 159.238ZM155.721 156.016L158.504 161.562L161.141 156.016L162.937 156.016L163.582 165L161.902 165L161.336 158.877L158.504 165L155.457 158.818L154.998 165L153.318 165L153.924 156.016L155.721 156.016ZM177.479 159.238L172.303 165.176L171.297 165.176L171.297 156.016L173.074 156.016L173.074 162.139L178.299 156.016L179.256 156.016L179.256 165L177.479 165L177.479 159.238ZM182.869 161.035L182.869 159.658C183.377 159.658 183.816 159.645 184.187 159.619C184.565 159.587 184.878 159.528 185.125 159.443C185.372 159.352 185.558 159.229 185.682 159.072C185.805 158.916 185.867 158.711 185.867 158.457C185.867 158.125 185.701 157.874 185.369 157.705C185.044 157.529 184.575 157.441 183.963 157.441C183.41 157.441 182.895 157.523 182.42 157.686C181.945 157.842 181.541 158.021 181.209 158.223L181.209 156.699C181.365 156.582 181.564 156.471 181.805 156.367C182.052 156.263 182.312 156.172 182.586 156.094C182.859 156.016 183.133 155.954 183.406 155.908C183.686 155.863 183.94 155.84 184.168 155.84C184.643 155.84 185.092 155.892 185.516 155.996C185.939 156.094 186.31 156.24 186.629 156.436C186.948 156.631 187.199 156.875 187.381 157.168C187.57 157.454 187.664 157.786 187.664 158.164C187.664 158.691 187.505 159.141 187.186 159.512C186.867 159.883 186.434 160.12 185.887 160.225C186.134 160.277 186.375 160.368 186.609 160.498C186.844 160.622 187.055 160.781 187.244 160.977C187.433 161.172 187.583 161.396 187.693 161.65C187.811 161.904 187.869 162.187 187.869 162.5C187.869 163.027 187.755 163.464 187.527 163.809C187.299 164.154 187 164.43 186.629 164.639C186.264 164.84 185.848 164.984 185.379 165.068C184.917 165.153 184.451 165.195 183.982 165.195C183.807 165.195 183.576 165.179 183.289 165.146C183.003 165.12 182.71 165.072 182.41 165C182.111 164.935 181.824 164.85 181.551 164.746C181.284 164.635 181.082 164.505 180.945 164.355L180.945 162.637C181.128 162.78 181.336 162.91 181.57 163.027C181.811 163.145 182.055 163.245 182.303 163.33C182.55 163.415 182.794 163.483 183.035 163.535C183.283 163.581 183.501 163.604 183.689 163.604C184.438 163.604 185.018 163.496 185.428 163.281C185.838 163.066 186.043 162.731 186.043 162.275C186.043 162.048 185.981 161.855 185.857 161.699C185.734 161.543 185.568 161.416 185.359 161.318C185.158 161.221 184.926 161.149 184.666 161.104C184.412 161.058 184.152 161.035 183.885 161.035L182.869 161.035ZM189.539 165L189.539 156.016L192.937 156.016C193.426 156.016 193.862 156.074 194.246 156.191C194.637 156.302 194.965 156.465 195.232 156.68C195.506 156.888 195.714 157.139 195.857 157.432C196.007 157.725 196.082 158.047 196.082 158.398C196.082 158.659 196.043 158.9 195.965 159.121C195.887 159.336 195.786 159.528 195.662 159.697C195.538 159.867 195.395 160.013 195.232 160.137C195.076 160.26 194.917 160.361 194.754 160.439C194.956 160.531 195.148 160.635 195.33 160.752C195.519 160.863 195.685 160.999 195.828 161.162C195.971 161.325 196.085 161.517 196.17 161.738C196.255 161.953 196.297 162.207 196.297 162.5C196.297 162.812 196.242 163.118 196.131 163.418C196.027 163.717 195.854 163.984 195.613 164.219C195.372 164.453 195.057 164.642 194.666 164.785C194.282 164.928 193.807 165 193.24 165L189.539 165ZM191.316 157.617L191.316 159.922L192.654 159.922C193.149 159.922 193.54 159.827 193.826 159.639C194.113 159.443 194.256 159.105 194.256 158.623C194.256 158.441 194.207 158.288 194.109 158.164C194.012 158.034 193.885 157.93 193.729 157.852C193.572 157.767 193.4 157.708 193.211 157.676C193.022 157.637 192.837 157.617 192.654 157.617L191.316 157.617ZM191.316 161.104L191.316 163.398L192.937 163.398C193.159 163.398 193.364 163.379 193.553 163.34C193.742 163.294 193.904 163.226 194.041 163.135C194.178 163.037 194.285 162.917 194.363 162.773C194.441 162.624 194.48 162.445 194.48 162.236C194.48 162.041 194.428 161.875 194.324 161.738C194.22 161.595 194.074 161.478 193.885 161.387C193.702 161.289 193.484 161.217 193.23 161.172C192.983 161.126 192.713 161.104 192.42 161.104L191.316 161.104ZM204.568 159.238L199.393 165.176L198.387 165.176L198.387 156.016L200.164 156.016L200.164 162.139L205.389 156.016L206.346 156.016L206.346 165L204.568 165L204.568 159.238ZM216.854 156.016L216.854 165L215.076 165L215.076 161.162L210.672 161.162L210.672 165L208.895 165L208.895 156.016L210.672 156.016L210.672 159.561L215.076 159.561L215.076 156.016L216.854 156.016ZM220.701 160.781C220.988 162.578 221.993 163.477 223.719 163.477C224.272 163.477 224.803 163.382 225.311 163.193C225.818 163.005 226.336 162.741 226.863 162.402L226.863 164.121C226.59 164.303 226.32 164.46 226.053 164.59C225.792 164.72 225.519 164.831 225.232 164.922C224.952 165.007 224.653 165.068 224.334 165.107C224.015 165.153 223.663 165.176 223.279 165.176C222.583 165.176 221.964 165.046 221.424 164.785C220.883 164.518 220.428 164.163 220.057 163.721C219.686 163.278 219.402 162.77 219.207 162.197C219.018 161.618 218.924 161.019 218.924 160.4C218.924 159.717 219.025 159.095 219.227 158.535C219.435 157.975 219.725 157.497 220.096 157.1C220.467 156.696 220.91 156.387 221.424 156.172C221.938 155.951 222.505 155.84 223.123 155.84C223.722 155.84 224.259 155.944 224.734 156.152C225.216 156.354 225.626 156.66 225.965 157.07C226.303 157.48 226.564 157.995 226.746 158.613C226.928 159.232 227.02 159.954 227.02 160.781L220.701 160.781ZM225.262 159.6C225.236 158.916 225.037 158.376 224.666 157.979C224.295 157.581 223.794 157.383 223.162 157.383C222.472 157.383 221.925 157.575 221.521 157.959C221.124 158.343 220.864 158.89 220.74 159.6L225.262 159.6ZM236.951 156.016L236.951 165L235.174 165L235.174 161.162L230.77 161.162L230.77 165L228.992 165L228.992 156.016L230.77 156.016L230.77 159.561L235.174 159.561L235.174 156.016L236.951 156.016ZM245.682 159.238L240.506 165.176L239.5 165.176L239.5 156.016L241.277 156.016L241.277 162.139L246.502 156.016L247.459 156.016L247.459 165L245.682 165L245.682 159.238ZM250.35 163.076C250.597 162.705 250.857 162.373 251.131 162.08C251.404 161.787 251.717 161.559 252.068 161.396C251.769 161.286 251.499 161.156 251.258 161.006C251.017 160.85 250.809 160.667 250.633 160.459C250.464 160.251 250.333 160.013 250.242 159.746C250.151 159.473 250.105 159.163 250.105 158.818C250.105 158.389 250.206 158.001 250.408 157.656C250.617 157.311 250.887 157.018 251.219 156.777C251.557 156.53 251.941 156.341 252.371 156.211C252.801 156.081 253.24 156.016 253.689 156.016L257.029 156.016L257.029 165L255.252 165L255.252 161.719L254.744 161.719C254.51 161.719 254.282 161.742 254.061 161.787C253.846 161.833 253.637 161.911 253.436 162.021C253.24 162.126 253.048 162.272 252.859 162.461C252.671 162.643 252.488 162.871 252.312 163.145L251.131 165L249.031 165L250.35 163.076ZM255.252 160.322L255.252 157.617L253.689 157.617C253.117 157.617 252.68 157.728 252.381 157.949C252.081 158.164 251.932 158.486 251.932 158.916C251.932 159.079 251.961 159.245 252.02 159.414C252.085 159.577 252.186 159.727 252.322 159.863C252.465 160 252.648 160.111 252.869 160.195C253.097 160.28 253.37 160.322 253.689 160.322L255.252 160.322ZM259.236 167.363L259.236 167.002C259.529 166.722 259.734 166.439 259.852 166.152C259.969 165.872 260.037 165.488 260.057 165C259.367 164.798 259.021 164.372 259.021 163.721C259.021 163.369 259.139 163.066 259.373 162.812C259.614 162.552 259.897 162.422 260.223 162.422C260.62 162.422 260.945 162.598 261.199 162.949C261.453 163.301 261.58 163.75 261.58 164.297C261.58 165.02 261.372 165.654 260.955 166.201C260.538 166.748 259.965 167.135 259.236 167.363ZM82.5371 183.299L82.5371 181.697L86.2383 181.697C86.1602 181.313 86.0365 180.981 85.8672 180.701C85.7044 180.421 85.5026 180.193 85.2617 180.018C85.0273 179.835 84.7604 179.702 84.4609 179.617C84.1615 179.526 83.8392 179.48 83.4941 179.48C83.2988 179.48 83.1068 179.493 82.918 179.52C82.7357 179.546 82.5436 179.594 82.3418 179.666C82.1465 179.731 81.9382 179.822 81.7168 179.939C81.502 180.05 81.2676 180.19 81.0137 180.359L81.0137 178.465C81.2285 178.367 81.4368 178.279 81.6387 178.201C81.8405 178.123 82.0456 178.058 82.2539 178.006C82.4622 177.954 82.6771 177.915 82.8984 177.889C83.1198 177.856 83.3607 177.84 83.6211 177.84C84.2982 177.84 84.9102 177.954 85.457 178.182C86.0039 178.41 86.4694 178.735 86.8535 179.158C87.2376 179.575 87.5339 180.083 87.7422 180.682C87.9505 181.274 88.0547 181.941 88.0547 182.684C88.0547 183.341 87.9408 183.947 87.7129 184.5C87.4915 185.047 87.179 185.519 86.7754 185.916C86.3783 186.313 85.8997 186.622 85.3398 186.844C84.7799 187.065 84.1647 187.176 83.4941 187.176C83.2598 187.176 83.0156 187.163 82.7617 187.137C82.5143 187.111 82.2702 187.072 82.0293 187.02C81.7949 186.974 81.5703 186.922 81.3555 186.863C81.1471 186.798 80.9681 186.73 80.8184 186.658L80.8184 184.9C81.2676 185.102 81.6777 185.252 82.0488 185.35C82.4264 185.447 82.8105 185.496 83.2012 185.496C83.5853 185.496 83.9466 185.457 84.2852 185.379C84.6237 185.294 84.9264 185.164 85.1934 184.988C85.4603 184.806 85.6849 184.578 85.8672 184.305C86.0495 184.025 86.1797 183.689 86.2578 183.299L82.5371 183.299ZM94.0703 179.617L94.0703 187L92.2832 187L92.2832 179.617L89.1289 179.617L89.1289 178.016L97.2246 178.016L97.2246 179.617L94.0703 179.617ZM103.074 177.84C103.777 177.84 104.425 177.954 105.018 178.182C105.617 178.41 106.131 178.729 106.561 179.139C106.997 179.542 107.335 180.024 107.576 180.584C107.817 181.144 107.937 181.756 107.937 182.42C107.937 183.13 107.817 183.777 107.576 184.363C107.342 184.949 107.01 185.451 106.58 185.867C106.157 186.284 105.646 186.606 105.047 186.834C104.454 187.062 103.797 187.176 103.074 187.176C102.384 187.176 101.749 187.059 101.17 186.824C100.59 186.583 100.089 186.255 99.666 185.838C99.2493 185.415 98.9238 184.913 98.6895 184.334C98.4551 183.748 98.3379 183.11 98.3379 182.42C98.3379 181.775 98.4583 181.176 98.6992 180.623C98.9401 180.063 99.2721 179.578 99.6953 179.168C100.125 178.751 100.626 178.426 101.199 178.191C101.779 177.957 102.404 177.84 103.074 177.84ZM103.055 179.441C102.638 179.441 102.251 179.516 101.893 179.666C101.541 179.816 101.235 180.024 100.975 180.291C100.714 180.551 100.512 180.864 100.369 181.229C100.226 181.593 100.154 181.99 100.154 182.42C100.154 182.895 100.223 183.328 100.359 183.719C100.503 184.109 100.701 184.445 100.955 184.725C101.215 184.998 101.521 185.21 101.873 185.359C102.231 185.509 102.625 185.584 103.055 185.584C103.523 185.584 103.947 185.512 104.324 185.369C104.702 185.219 105.021 185.011 105.281 184.744C105.548 184.471 105.753 184.142 105.896 183.758C106.04 183.367 106.111 182.928 106.111 182.439C106.111 182.003 106.033 181.603 105.877 181.238C105.727 180.874 105.516 180.558 105.242 180.291C104.975 180.024 104.653 179.816 104.275 179.666C103.904 179.516 103.497 179.441 103.055 179.441ZM116.814 182.781C117.101 184.578 118.107 185.477 119.832 185.477C120.385 185.477 120.916 185.382 121.424 185.193C121.932 185.005 122.449 184.741 122.977 184.402L122.977 186.121C122.703 186.303 122.433 186.46 122.166 186.59C121.906 186.72 121.632 186.831 121.346 186.922C121.066 187.007 120.766 187.068 120.447 187.107C120.128 187.153 119.777 187.176 119.393 187.176C118.696 187.176 118.077 187.046 117.537 186.785C116.997 186.518 116.541 186.163 116.17 185.721C115.799 185.278 115.516 184.77 115.32 184.197C115.132 183.618 115.037 183.019 115.037 182.4C115.037 181.717 115.138 181.095 115.34 180.535C115.548 179.975 115.838 179.497 116.209 179.1C116.58 178.696 117.023 178.387 117.537 178.172C118.051 177.951 118.618 177.84 119.236 177.84C119.835 177.84 120.372 177.944 120.848 178.152C121.329 178.354 121.74 178.66 122.078 179.07C122.417 179.48 122.677 179.995 122.859 180.613C123.042 181.232 123.133 181.954 123.133 182.781L116.814 182.781ZM121.375 181.6C121.349 180.916 121.15 180.376 120.779 179.979C120.408 179.581 119.907 179.383 119.275 179.383C118.585 179.383 118.038 179.575 117.635 179.959C117.238 180.343 116.977 180.89 116.854 181.6L121.375 181.6ZM125.105 187L125.105 178.016L126.883 178.016L126.883 185.398L130.203 185.398L130.203 178.016L131.99 178.016L131.99 185.398L135.33 185.398L135.33 178.016L137.107 178.016L137.107 185.398L138.709 185.398L138.709 189.021L136.951 189.021L136.951 187L125.105 187ZM141.404 182.781C141.691 184.578 142.697 185.477 144.422 185.477C144.975 185.477 145.506 185.382 146.014 185.193C146.521 185.005 147.039 184.741 147.566 184.402L147.566 186.121C147.293 186.303 147.023 186.46 146.756 186.59C146.495 186.72 146.222 186.831 145.936 186.922C145.656 187.007 145.356 187.068 145.037 187.107C144.718 187.153 144.367 187.176 143.982 187.176C143.286 187.176 142.667 187.046 142.127 186.785C141.587 186.518 141.131 186.163 140.76 185.721C140.389 185.278 140.105 184.77 139.91 184.197C139.721 183.618 139.627 183.019 139.627 182.4C139.627 181.717 139.728 181.095 139.93 180.535C140.138 179.975 140.428 179.497 140.799 179.1C141.17 178.696 141.613 178.387 142.127 178.172C142.641 177.951 143.208 177.84 143.826 177.84C144.425 177.84 144.962 177.944 145.437 178.152C145.919 178.354 146.329 178.66 146.668 179.07C147.007 179.48 147.267 179.995 147.449 180.613C147.632 181.232 147.723 181.954 147.723 182.781L141.404 182.781ZM145.965 181.6C145.939 180.916 145.74 180.376 145.369 179.979C144.998 179.581 144.497 179.383 143.865 179.383C143.175 179.383 142.628 179.575 142.225 179.959C141.827 180.343 141.567 180.89 141.443 181.6L145.965 181.6ZM141.805 174.441C142.065 174.441 142.283 174.529 142.459 174.705C142.635 174.881 142.723 175.099 142.723 175.359C142.723 175.62 142.635 175.841 142.459 176.023C142.283 176.206 142.065 176.297 141.805 176.297C141.544 176.297 141.323 176.206 141.141 176.023C140.958 175.841 140.867 175.62 140.867 175.359C140.867 175.099 140.958 174.881 141.141 174.705C141.323 174.529 141.544 174.441 141.805 174.441ZM145.525 174.441C145.786 174.441 146.004 174.529 146.18 174.705C146.355 174.881 146.443 175.099 146.443 175.359C146.443 175.62 146.355 175.841 146.18 176.023C146.004 176.206 145.786 176.297 145.525 176.297C145.265 176.297 145.044 176.206 144.861 176.023C144.679 175.841 144.588 175.62 144.588 175.359C144.588 175.099 144.679 174.881 144.861 174.705C145.044 174.529 145.265 174.441 145.525 174.441ZM163.221 178.016L163.221 187L161.443 187L161.443 183.162L157.039 183.162L157.039 187L155.262 187L155.262 178.016L157.039 178.016L157.039 181.561L161.443 181.561L161.443 178.016L163.221 178.016ZM167.068 182.781C167.355 184.578 168.361 185.477 170.086 185.477C170.639 185.477 171.17 185.382 171.678 185.193C172.186 185.005 172.703 184.741 173.23 184.402L173.23 186.121C172.957 186.303 172.687 186.46 172.42 186.59C172.16 186.72 171.886 186.831 171.6 186.922C171.32 187.007 171.02 187.068 170.701 187.107C170.382 187.153 170.031 187.176 169.646 187.176C168.95 187.176 168.331 187.046 167.791 186.785C167.251 186.518 166.795 186.163 166.424 185.721C166.053 185.278 165.77 184.77 165.574 184.197C165.385 183.618 165.291 183.019 165.291 182.4C165.291 181.717 165.392 181.095 165.594 180.535C165.802 179.975 166.092 179.497 166.463 179.1C166.834 178.696 167.277 178.387 167.791 178.172C168.305 177.951 168.872 177.84 169.49 177.84C170.089 177.84 170.626 177.944 171.102 178.152C171.583 178.354 171.993 178.66 172.332 179.07C172.671 179.48 172.931 179.995 173.113 180.613C173.296 181.232 173.387 181.954 173.387 182.781L167.068 182.781ZM171.629 181.6C171.603 180.916 171.404 180.376 171.033 179.979C170.662 179.581 170.161 179.383 169.529 179.383C168.839 179.383 168.292 179.575 167.889 179.959C167.492 180.343 167.231 180.89 167.107 181.6L171.629 181.6ZM189.324 189.021L187.566 189.021L187.566 187L181.59 187L181.59 189.021L179.822 189.021L179.822 185.398L180.564 185.398L184.207 177.84L185.203 177.84L188.592 185.398L189.324 185.398L189.324 189.021ZM186.727 185.398L184.588 180.682L182.41 185.398L186.727 185.398ZM194.988 177.84C195.691 177.84 196.339 177.954 196.932 178.182C197.531 178.41 198.045 178.729 198.475 179.139C198.911 179.542 199.249 180.024 199.49 180.584C199.731 181.144 199.852 181.756 199.852 182.42C199.852 183.13 199.731 183.777 199.49 184.363C199.256 184.949 198.924 185.451 198.494 185.867C198.071 186.284 197.56 186.606 196.961 186.834C196.368 187.062 195.711 187.176 194.988 187.176C194.298 187.176 193.663 187.059 193.084 186.824C192.505 186.583 192.003 186.255 191.58 185.838C191.163 185.415 190.838 184.913 190.604 184.334C190.369 183.748 190.252 183.11 190.252 182.42C190.252 181.775 190.372 181.176 190.613 180.623C190.854 180.063 191.186 179.578 191.609 179.168C192.039 178.751 192.54 178.426 193.113 178.191C193.693 177.957 194.318 177.84 194.988 177.84ZM194.969 179.441C194.552 179.441 194.165 179.516 193.807 179.666C193.455 179.816 193.149 180.024 192.889 180.291C192.628 180.551 192.426 180.864 192.283 181.229C192.14 181.593 192.068 181.99 192.068 182.42C192.068 182.895 192.137 183.328 192.273 183.719C192.417 184.109 192.615 184.445 192.869 184.725C193.13 184.998 193.436 185.21 193.787 185.359C194.145 185.509 194.539 185.584 194.969 185.584C195.437 185.584 195.861 185.512 196.238 185.369C196.616 185.219 196.935 185.011 197.195 184.744C197.462 184.471 197.667 184.142 197.811 183.758C197.954 183.367 198.025 182.928 198.025 182.439C198.025 182.003 197.947 181.603 197.791 181.238C197.641 180.874 197.43 180.558 197.156 180.291C196.889 180.024 196.567 179.816 196.189 179.666C195.818 179.516 195.411 179.441 194.969 179.441ZM208.621 186.658C208.471 186.73 208.292 186.798 208.084 186.863C207.876 186.922 207.651 186.974 207.41 187.02C207.169 187.072 206.922 187.111 206.668 187.137C206.421 187.163 206.18 187.176 205.945 187.176C205.275 187.176 204.66 187.065 204.1 186.844C203.54 186.622 203.058 186.313 202.654 185.916C202.257 185.519 201.945 185.047 201.717 184.5C201.495 183.947 201.385 183.341 201.385 182.684C201.385 181.941 201.489 181.274 201.697 180.682C201.906 180.083 202.202 179.575 202.586 179.158C202.97 178.735 203.436 178.41 203.982 178.182C204.529 177.954 205.145 177.84 205.828 177.84C206.089 177.84 206.329 177.856 206.551 177.889C206.772 177.915 206.984 177.954 207.186 178.006C207.394 178.058 207.599 178.123 207.801 178.201C208.003 178.279 208.211 178.367 208.426 178.465L208.426 180.359C208.172 180.19 207.934 180.05 207.713 179.939C207.498 179.822 207.29 179.731 207.088 179.666C206.893 179.594 206.701 179.546 206.512 179.52C206.329 179.493 206.141 179.48 205.945 179.48C205.542 179.48 205.171 179.555 204.832 179.705C204.493 179.848 204.204 180.053 203.963 180.32C203.722 180.587 203.533 180.906 203.396 181.277C203.266 181.648 203.201 182.062 203.201 182.518C203.201 182.986 203.273 183.406 203.416 183.777C203.559 184.142 203.764 184.451 204.031 184.705C204.298 184.959 204.617 185.154 204.988 185.291C205.366 185.428 205.786 185.496 206.248 185.496C206.626 185.496 207.003 185.447 207.381 185.35C207.758 185.252 208.172 185.102 208.621 184.9L208.621 186.658ZM214.637 179.617L214.637 187L212.85 187L212.85 179.617L209.695 179.617L209.695 178.016L217.791 178.016L217.791 179.617L214.637 179.617ZM226.941 178.016L220.584 191.6L218.602 191.6L221.658 185.076L218.182 178.016L220.203 178.016L222.625 183.084L224.939 178.016L226.941 178.016ZM236.209 178.016L236.209 187L234.432 187L234.432 179.617L230.027 179.617L230.027 187L228.25 187L228.25 178.016L236.209 178.016ZM246.717 178.016L246.717 187L244.939 187L244.939 183.162L240.535 183.162L240.535 187L238.758 187L238.758 178.016L240.535 178.016L240.535 181.561L244.939 181.561L244.939 178.016L246.717 178.016ZM253.426 177.84C254.129 177.84 254.777 177.954 255.369 178.182C255.968 178.409 256.482 178.729 256.912 179.139C257.348 179.542 257.687 180.024 257.928 180.584C258.169 181.144 258.289 181.756 258.289 182.42C258.289 183.13 258.169 183.777 257.928 184.363C257.693 184.949 257.361 185.451 256.932 185.867C256.508 186.284 255.997 186.606 255.398 186.834C254.806 187.062 254.148 187.176 253.426 187.176C252.736 187.176 252.101 187.059 251.521 186.824C250.942 186.583 250.441 186.255 250.018 185.838C249.601 185.415 249.275 184.913 249.041 184.334C248.807 183.748 248.689 183.11 248.689 182.42C248.689 181.775 248.81 181.176 249.051 180.623C249.292 180.063 249.624 179.578 250.047 179.168C250.477 178.751 250.978 178.426 251.551 178.191C252.13 177.957 252.755 177.84 253.426 177.84ZM253.406 179.441C252.99 179.441 252.602 179.516 252.244 179.666C251.893 179.816 251.587 180.024 251.326 180.291C251.066 180.551 250.864 180.864 250.721 181.229C250.577 181.593 250.506 181.99 250.506 182.42C250.506 182.895 250.574 183.328 250.711 183.719C250.854 184.109 251.053 184.445 251.307 184.725C251.567 184.998 251.873 185.21 252.225 185.359C252.583 185.509 252.977 185.584 253.406 185.584C253.875 185.584 254.298 185.512 254.676 185.369C255.053 185.219 255.372 185.011 255.633 184.744C255.9 184.471 256.105 184.142 256.248 183.758C256.391 183.367 256.463 182.928 256.463 182.439C256.463 182.003 256.385 181.603 256.229 181.238C256.079 180.874 255.867 180.558 255.594 180.291C255.327 180.024 255.005 179.816 254.627 179.666C254.256 179.516 253.849 179.441 253.406 179.441Z" fill="white"/>
    </g>
    <path d="M169.375 246.678C195.615 241.372 222.455 234.584 246.972 223.641C269.148 213.743 287.736 198.008 299.664 176.711C310.453 157.48 318.946 129.361 305.862 109.241C293.7 90.5443 268.41 81.2082 247.303 77.9239C200.064 70.5751 151.789 90.0996 110.512 111.298C90.5262 121.558 71.094 134.067 56.4625 151.364C42.1248 168.316 31.4605 191.954 37.705 214.373C45.463 242.2 78.1193 246.53 102.564 249.263C109.483 250.043 116.433 250.553 123.391 250.83C130.109 251.092 137.077 250.401 143.754 251.026C155.178 252.1 157.458 269.794 158.349 278.751C157.527 278.407 156.7 278.075 155.878 277.731C165.654 269.847 171.648 258.52 172.527 245.994C172.65 244.273 175.345 244.258 175.236 246.003C174.424 259.233 168.232 271.374 157.929 279.748C156.908 280.577 155.585 280.03 155.457 278.728C155.058 274.795 154.367 270.944 153.251 267.153C152.258 263.782 150.982 257.876 148.062 255.662C144.994 253.325 140.855 253.891 137.29 253.916C133.225 253.947 129.168 253.897 125.106 253.762C112.221 253.324 99.3786 252.031 86.6664 249.92C65.8599 246.473 43.3619 239.698 35.6502 217.81C28.1583 196.548 36.6388 172.882 49.3849 155.505C62.9929 136.985 82.1085 123.359 102.111 112.445C123.893 100.557 147.254 90.4346 170.926 82.9949C194.264 75.6603 218.91 71.6135 243.348 74.5809C264.318 77.1356 286.603 84.8308 301.867 99.9883C319.044 117.057 317.038 142.153 309.071 163.239C299.844 187.641 282.005 208.123 259.11 220.643C245.734 227.961 231.158 232.804 216.589 237.107C201.197 241.656 185.559 245.321 169.793 248.272C168.764 248.462 168.34 246.893 169.375 246.678Z" fill="white"/>
    <defs>
        <filter id="filter0_d_283_1111" x="164.7" y="117.357" width="52.4336" height="24.7383" filterUnits="userSpaceOnUse" color-interpolation-filters="sRGB">
            <feFlood flood-opacity="0" result="BackgroundImageFix"/>
            <feColorMatrix in="SourceAlpha" type="matrix" values="0 0 0 0 0 0 0 0 0 0 0 0 0 0 0 0 0 0 127 0" result="hardAlpha"/>
            <feOffset dy="4"/>
            <feGaussianBlur stdDeviation="2"/>
            <feComposite in2="hardAlpha" operator="out"/>
            <feColorMatrix type="matrix" values="0 0 0 0 0 0 0 0 0 0 0 0 0 0 0 0 0 0 0.25 0"/>
            <feBlend mode="normal" in2="BackgroundImageFix" result="effect1_dropShadow_283_1111"/>
            <feBlend mode="normal" in="SourceGraphic" in2="effect1_dropShadow_283_1111" result="shape"/>
        </filter>
        <filter id="filter1_d_283_1111" x="73.8496" y="151.357" width="191.73" height="48.2422" filterUnits="userSpaceOnUse" color-interpolation-filters="sRGB">
            <feFlood flood-opacity="0" result="BackgroundImageFix"/>
            <feColorMatrix in="SourceAlpha" type="matrix" values="0 0 0 0 0 0 0 0 0 0 0 0 0 0 0 0 0 0 127 0" result="hardAlpha"/>
            <feOffset dy="4"/>
            <feGaussianBlur stdDeviation="2"/>
            <feComposite in2="hardAlpha" operator="out"/>
            <feColorMatrix type="matrix" values="0 0 0 0 0 0 0 0 0 0 0 0 0 0 0 0 0 0 0.25 0"/>
            <feBlend mode="normal" in2="BackgroundImageFix" result="effect1_dropShadow_283_1111"/>
            <feBlend mode="normal" in="SourceGraphic" in2="effect1_dropShadow_283_1111" result="shape"/>
        </filter>
    </defs>
</svg>
