<svg width="33" height="28" viewBox="0 0 33 28" fill="none" xmlns="http://www.w3.org/2000/svg">
    <path fill-rule="evenodd" clip-rule="evenodd" d="M3.77904 2.86861C3.64362 2.82966 3.44658 2.81587 2.46148 2.81587H1.42103C0.636216 2.81587 0 2.18557 0 1.40806C0 0.630547 0.636216 0.000247453 1.42103 0.000247453H2.46148L2.62159 0.000122145C3.35162 -0.000739164 3.99392 -0.00149418 4.57157 0.164682C5.72444 0.496335 6.67798 1.3026 7.18972 2.37845C7.30075 2.61186 7.38248 2.86205 7.44871 3.12871H26.8566L26.898 3.12871C27.578 3.1287 28.1498 3.12869 28.6164 3.15592C29.0981 3.18404 29.5737 3.24515 30.0352 3.41614C31.6081 3.99892 32.7328 5.38791 32.9658 7.03546C33.0342 7.51885 32.9912 7.99209 32.9144 8.46404C32.84 8.92121 32.716 9.47416 32.5685 10.1318L32.5595 10.1719L31.5588 14.6328L31.5196 14.8083C31.298 15.7992 31.1278 16.56 30.7825 17.2027C30.091 18.49 28.8962 19.4396 27.4777 19.8291C26.7695 20.0236 25.9829 20.0231 24.9585 20.0225L24.777 20.0224H13.2427L13.0496 20.0225C11.9665 20.0232 11.1361 20.0237 10.3981 19.8114C8.91897 19.3859 7.69556 18.3515 7.03898 16.9711C6.71138 16.2824 6.58146 15.4699 6.41201 14.4101L6.38175 14.2212L4.87841 4.85949C4.72363 3.89567 4.67893 3.70505 4.61882 3.57869C4.45468 3.2336 4.14882 2.97499 3.77904 2.86861ZM7.93041 5.94433L9.18851 13.7788C9.40327 15.1162 9.47797 15.4936 9.60988 15.7709C9.91886 16.4205 10.4946 16.9073 11.1907 17.1075C11.4878 17.193 11.8758 17.2068 13.2427 17.2068H24.777C26.0678 17.2068 26.4329 17.1942 26.7185 17.1158C27.386 16.9325 27.9482 16.4857 28.2737 15.8799C28.4129 15.6208 28.5045 15.2704 28.7845 14.022L29.7851 9.56109C29.944 8.85286 30.0491 8.38137 30.1086 8.01596C30.1671 7.65605 30.1621 7.50321 30.1512 7.4262C30.0628 6.80126 29.6363 6.27441 29.0396 6.05335C28.9661 6.02611 28.8166 5.98811 28.4493 5.96667C28.0763 5.9449 27.5889 5.94433 26.8566 5.94433H7.93041ZM9.31562 25.2626C9.31562 23.7508 10.5527 22.5252 12.0787 22.5252C13.6047 22.5252 14.8418 23.7508 14.8418 25.2626C14.8418 26.7744 13.6047 28 12.0787 28C10.5527 28 9.31562 26.7744 9.31562 25.2626ZM25.4995 22.5252C23.9735 22.5252 22.7364 23.7508 22.7364 25.2626C22.7364 26.7744 23.9735 28 25.4995 28C27.0256 28 28.2626 26.7744 28.2626 25.2626C28.2626 23.7508 27.0256 22.5252 25.4995 22.5252Z" fill="#2688EB"/>
</svg>
